<svg width="319" height="906" viewBox="0 0 319 906" fill="none" xmlns="http://www.w3.org/2000/svg">
  <path
    d="M94.8617 258.673L87.135 273.122C79.4082 287.571 63.9547 316.469 56.2279 348.859C48.5011 381.248 48.5011 417.13 48.5011 453.011C48.5011 488.892 48.5011 524.773 66.575 557.476C84.649 590.178 120.797 619.701 138.871 634.462L156.945 649.224"
    stroke="#333333" stroke-width="1.7269" />
  <path
    d="M120.403 258.447L130.426 272.934C140.449 287.42 160.496 316.394 180.508 345.365C200.52 374.337 220.498 403.306 230.487 417.791L240.476 432.275"
    stroke="#333333" stroke-width="1.7269" />
  <path
    d="M254.776 474.309V488.7C254.776 503.091 254.776 531.873 244.728 560.787C234.68 589.701 214.583 618.747 204.535 633.27L194.487 647.793"
    stroke="#333333" stroke-width="1.7269" />
  <path
    d="M180.299 689.597V703.988C180.299 718.379 180.299 747.16 180.299 775.942C180.299 804.724 180.299 833.505 180.299 847.896V862.287"
    stroke="#333333" stroke-width="1.7269" />
  <path
    d="M165.611 43.7346L155.687 58.1255C145.762 72.5164 125.913 101.298 115.989 130.08C106.065 158.862 106.065 187.643 106.065 202.034V216.425"
    stroke="#333333" stroke-width="1.7269" />
  <path
    d="M206.425 43.7346L224.077 58.1255C241.73 72.5164 277.035 101.298 294.687 133.63C312.34 165.961 312.34 201.842 312.34 237.724C312.34 273.605 312.34 309.486 304.613 341.875C296.887 374.264 281.434 403.16 273.708 417.608L265.982 432.056"
    stroke="#333333" stroke-width="1.7269" />
  <path
    d="M106.065 259.022C140.374 259.022 168.188 249.486 168.188 237.724C168.188 225.961 140.374 216.425 106.065 216.425C71.7547 216.425 43.941 225.961 43.941 237.724C43.941 249.486 71.7547 259.022 106.065 259.022Z"
    fill="white" stroke="#231F20" stroke-width="1.7269" />
  <path
    d="M61.3394 238.311C60.9175 238.807 60.2983 239.055 59.4819 239.055C58.8062 239.055 58.2905 238.86 57.9351 238.469C57.5835 238.074 57.4058 237.492 57.4019 236.723V232.598H58.4858V236.694C58.4858 237.655 58.8765 238.135 59.6577 238.135C60.4858 238.135 61.0366 237.826 61.3101 237.209V232.598H62.394V238.938H61.3628L61.3394 238.311ZM65.2241 238.938H64.1401V232.598H65.2241V238.938ZM64.0522 230.916C64.0522 230.741 64.105 230.592 64.2104 230.471C64.3198 230.35 64.48 230.289 64.6909 230.289C64.9019 230.289 65.062 230.35 65.1714 230.471C65.2808 230.592 65.3354 230.741 65.3354 230.916C65.3354 231.092 65.2808 231.239 65.1714 231.356C65.062 231.473 64.9019 231.532 64.6909 231.532C64.48 231.532 64.3198 231.473 64.2104 231.356C64.105 231.239 64.0522 231.092 64.0522 230.916ZM69.2202 235.756H66.3608V234.871H69.2202V235.756ZM70.814 238.938V233.436H69.812V232.598H70.814V231.948C70.814 231.268 70.9956 230.742 71.3589 230.371C71.7222 230 72.2358 229.815 72.8999 229.815C73.1499 229.815 73.3979 229.848 73.644 229.914L73.5854 230.793C73.4019 230.758 73.2065 230.741 72.9995 230.741C72.6479 230.741 72.3765 230.844 72.1851 231.051C71.9937 231.254 71.8979 231.547 71.8979 231.93V232.598H73.2515V233.436H71.8979V238.938H70.814ZM74.1655 235.709C74.1655 235.088 74.2866 234.53 74.5288 234.033C74.7749 233.537 75.1147 233.155 75.5483 232.885C75.9858 232.616 76.4839 232.481 77.0425 232.481C77.9058 232.481 78.603 232.78 79.1343 233.377C79.6694 233.975 79.937 234.77 79.937 235.762V235.838C79.937 236.455 79.8179 237.01 79.5796 237.502C79.3452 237.991 79.0073 238.371 78.5659 238.645C78.1284 238.918 77.6245 239.055 77.0542 239.055C76.1948 239.055 75.4976 238.756 74.9624 238.158C74.4312 237.561 74.1655 236.77 74.1655 235.785V235.709ZM75.2554 235.838C75.2554 236.541 75.4175 237.106 75.7417 237.532C76.0698 237.957 76.5073 238.17 77.0542 238.17C77.605 238.17 78.0425 237.955 78.3667 237.526C78.6909 237.092 78.853 236.487 78.853 235.709C78.853 235.014 78.687 234.451 78.355 234.022C78.0269 233.588 77.5894 233.371 77.0425 233.371C76.5073 233.371 76.0757 233.584 75.7476 234.01C75.4194 234.436 75.2554 235.045 75.2554 235.838ZM84.3608 233.571C84.1968 233.543 84.019 233.53 83.8276 233.53C83.1167 233.53 82.6343 233.832 82.3804 234.438V238.938H81.2964V232.598H82.3511L82.3687 233.33C82.7241 232.764 83.228 232.481 83.8804 232.481C84.0913 232.481 84.2515 232.508 84.3608 232.563V233.571ZM86.3823 232.598L86.4116 233.301C86.8765 232.754 87.5034 232.481 88.2925 232.481C89.1792 232.481 89.7827 232.821 90.103 233.5C90.314 233.196 90.5874 232.949 90.9233 232.762C91.2632 232.574 91.6636 232.481 92.1245 232.481C93.5151 232.481 94.2222 233.217 94.2456 234.69V238.938H93.1616V234.754C93.1616 234.301 93.0581 233.963 92.8511 233.741C92.644 233.514 92.2964 233.401 91.8081 233.401C91.4058 233.401 91.0718 233.522 90.8062 233.764C90.5405 234.002 90.3862 234.324 90.3433 234.731V238.938H89.2534V234.783C89.2534 233.862 88.8022 233.401 87.8999 233.401C87.189 233.401 86.7026 233.703 86.4409 234.309V238.938H85.3569V232.598H86.3823ZM98.1421 235.756H95.2827V234.871H98.1421V235.756ZM103.117 238.938C103.054 238.813 103.003 238.59 102.964 238.27C102.46 238.793 101.859 239.055 101.16 239.055C100.535 239.055 100.021 238.879 99.6187 238.528C99.2202 238.172 99.021 237.723 99.021 237.18C99.021 236.52 99.271 236.008 99.771 235.645C100.275 235.278 100.982 235.094 101.892 235.094H102.947V234.596C102.947 234.217 102.833 233.916 102.607 233.694C102.38 233.467 102.046 233.354 101.605 233.354C101.218 233.354 100.894 233.451 100.632 233.647C100.371 233.842 100.24 234.078 100.24 234.356H99.1499C99.1499 234.039 99.2612 233.735 99.4839 233.442C99.7104 233.145 100.015 232.91 100.398 232.739C100.785 232.567 101.208 232.481 101.669 232.481C102.4 232.481 102.972 232.664 103.386 233.032C103.8 233.395 104.015 233.897 104.031 234.537V237.455C104.031 238.037 104.105 238.5 104.253 238.844V238.938H103.117ZM101.318 238.112C101.658 238.112 101.98 238.024 102.285 237.848C102.589 237.672 102.81 237.444 102.947 237.162V235.862H102.097C100.769 235.862 100.105 236.25 100.105 237.028C100.105 237.367 100.218 237.633 100.445 237.824C100.671 238.016 100.962 238.112 101.318 238.112ZM106.755 232.598L106.791 233.395C107.275 232.785 107.908 232.481 108.689 232.481C110.029 232.481 110.705 233.237 110.716 234.748V238.938H109.632V234.742C109.628 234.285 109.523 233.948 109.316 233.729C109.113 233.51 108.794 233.401 108.361 233.401C108.009 233.401 107.701 233.494 107.435 233.682C107.169 233.869 106.962 234.116 106.814 234.42V238.938H105.73V232.598H106.755ZM112.093 235.715C112.093 234.727 112.322 233.942 112.779 233.36C113.236 232.774 113.841 232.481 114.595 232.481C115.369 232.481 115.972 232.754 116.406 233.301L116.458 232.598H117.449V238.785C117.449 239.606 117.205 240.252 116.716 240.725C116.232 241.198 115.58 241.434 114.759 241.434C114.302 241.434 113.855 241.336 113.417 241.141C112.98 240.946 112.646 240.678 112.416 240.338L112.978 239.688C113.443 240.262 114.011 240.549 114.683 240.549C115.21 240.549 115.621 240.401 115.914 240.104C116.21 239.807 116.359 239.389 116.359 238.85V238.305C115.925 238.805 115.333 239.055 114.583 239.055C113.841 239.055 113.24 238.756 112.779 238.158C112.322 237.561 112.093 236.746 112.093 235.715ZM113.183 235.838C113.183 236.553 113.33 237.116 113.623 237.526C113.916 237.932 114.326 238.135 114.853 238.135C115.537 238.135 116.039 237.824 116.359 237.203V234.309C116.027 233.703 115.529 233.401 114.865 233.401C114.337 233.401 113.925 233.606 113.628 234.016C113.332 234.426 113.183 235.033 113.183 235.838ZM123.003 238.311C122.582 238.807 121.962 239.055 121.146 239.055C120.47 239.055 119.955 238.86 119.599 238.469C119.248 238.074 119.07 237.492 119.066 236.723V232.598H120.15V236.694C120.15 237.655 120.541 238.135 121.322 238.135C122.15 238.135 122.701 237.826 122.974 237.209V232.598H124.058V238.938H123.027L123.003 238.311ZM126.888 238.938H125.804V229.938H126.888V238.938ZM132.542 238.938C132.48 238.813 132.429 238.59 132.39 238.27C131.886 238.793 131.285 239.055 130.585 239.055C129.96 239.055 129.447 238.879 129.044 238.528C128.646 238.172 128.447 237.723 128.447 237.18C128.447 236.52 128.697 236.008 129.197 235.645C129.701 235.278 130.408 235.094 131.318 235.094H132.373V234.596C132.373 234.217 132.259 233.916 132.033 233.694C131.806 233.467 131.472 233.354 131.031 233.354C130.644 233.354 130.32 233.451 130.058 233.647C129.796 233.842 129.666 234.078 129.666 234.356H128.576C128.576 234.039 128.687 233.735 128.91 233.442C129.136 233.145 129.441 232.91 129.824 232.739C130.21 232.567 130.634 232.481 131.095 232.481C131.826 232.481 132.398 232.664 132.812 233.032C133.226 233.395 133.441 233.897 133.457 234.537V237.455C133.457 238.037 133.531 238.5 133.679 238.844V238.938H132.542ZM130.744 238.112C131.083 238.112 131.406 238.024 131.71 237.848C132.015 237.672 132.236 237.444 132.373 237.162V235.862H131.523C130.195 235.862 129.531 236.25 129.531 237.028C129.531 237.367 129.644 237.633 129.871 237.824C130.097 238.016 130.388 238.112 130.744 238.112ZM138.22 233.571C138.056 233.543 137.878 233.53 137.687 233.53C136.976 233.53 136.494 233.832 136.24 234.438V238.938H135.156V232.598H136.21L136.228 233.33C136.583 232.764 137.087 232.481 137.74 232.481C137.951 232.481 138.111 232.508 138.22 232.563V233.571Z"
    fill="black" />
  <path
    d="M254.776 474.309C289.354 474.309 317.385 464.774 317.385 453.011C317.385 441.248 289.354 431.712 254.776 431.712C220.198 431.712 192.167 441.248 192.167 453.011C192.167 464.774 220.198 474.309 254.776 474.309Z"
    fill="white" stroke="#231F20" stroke-width="1.7269" />
  <path
    d="M209.565 453.598C209.143 454.094 208.524 454.342 207.708 454.342C207.032 454.342 206.516 454.147 206.161 453.756C205.809 453.362 205.632 452.78 205.628 452.01V447.885H206.712V451.981C206.712 452.942 207.102 453.422 207.884 453.422C208.712 453.422 209.263 453.114 209.536 452.497V447.885H210.62V454.225H209.589L209.565 453.598ZM213.45 454.225H212.366V447.885H213.45V454.225ZM212.278 446.204C212.278 446.028 212.331 445.879 212.436 445.758C212.546 445.637 212.706 445.577 212.917 445.577C213.128 445.577 213.288 445.637 213.397 445.758C213.507 445.879 213.561 446.028 213.561 446.204C213.561 446.379 213.507 446.526 213.397 446.643C213.288 446.76 213.128 446.819 212.917 446.819C212.706 446.819 212.546 446.76 212.436 446.643C212.331 446.526 212.278 446.379 212.278 446.204ZM217.446 451.043H214.587V450.159H217.446V451.043ZM219.04 454.225V448.723H218.038V447.885H219.04V447.235C219.04 446.555 219.222 446.03 219.585 445.659C219.948 445.288 220.462 445.102 221.126 445.102C221.376 445.102 221.624 445.135 221.87 445.202L221.811 446.081C221.628 446.045 221.432 446.028 221.225 446.028C220.874 446.028 220.602 446.131 220.411 446.338C220.22 446.542 220.124 446.834 220.124 447.217V447.885H221.477V448.723H220.124V454.225H219.04ZM222.391 450.997C222.391 450.375 222.513 449.817 222.755 449.321C223.001 448.825 223.341 448.442 223.774 448.172C224.212 447.903 224.71 447.768 225.268 447.768C226.132 447.768 226.829 448.067 227.36 448.665C227.895 449.262 228.163 450.057 228.163 451.049V451.125C228.163 451.743 228.044 452.297 227.806 452.79C227.571 453.278 227.233 453.659 226.792 453.932C226.354 454.206 225.85 454.342 225.28 454.342C224.421 454.342 223.724 454.043 223.188 453.446C222.657 452.848 222.391 452.057 222.391 451.073V450.997ZM223.481 451.125C223.481 451.829 223.643 452.393 223.968 452.819C224.296 453.245 224.733 453.458 225.28 453.458C225.831 453.458 226.268 453.243 226.593 452.813C226.917 452.379 227.079 451.774 227.079 450.997C227.079 450.301 226.913 449.739 226.581 449.309C226.253 448.875 225.815 448.659 225.268 448.659C224.733 448.659 224.302 448.872 223.974 449.297C223.645 449.723 223.481 450.333 223.481 451.125ZM232.587 448.858C232.423 448.831 232.245 448.817 232.054 448.817C231.343 448.817 230.86 449.12 230.606 449.725V454.225H229.522V447.885H230.577L230.595 448.618C230.95 448.051 231.454 447.768 232.106 447.768C232.317 447.768 232.477 447.795 232.587 447.85V448.858ZM234.608 447.885L234.638 448.588C235.102 448.042 235.729 447.768 236.518 447.768C237.405 447.768 238.009 448.108 238.329 448.788C238.54 448.483 238.813 448.237 239.149 448.049C239.489 447.862 239.89 447.768 240.35 447.768C241.741 447.768 242.448 448.504 242.472 449.977V454.225H241.388V450.042C241.388 449.588 241.284 449.25 241.077 449.028C240.87 448.801 240.522 448.688 240.034 448.688C239.632 448.688 239.298 448.809 239.032 449.051C238.766 449.29 238.612 449.612 238.569 450.018V454.225H237.479V450.071C237.479 449.149 237.028 448.688 236.126 448.688C235.415 448.688 234.929 448.991 234.667 449.596V454.225H233.583V447.885H234.608ZM246.368 451.043H243.509V450.159H246.368V451.043ZM249.972 453.458C250.358 453.458 250.696 453.34 250.985 453.106C251.274 452.872 251.434 452.579 251.466 452.227H252.491C252.472 452.59 252.347 452.936 252.116 453.264C251.886 453.592 251.577 453.854 251.19 454.049C250.807 454.245 250.401 454.342 249.972 454.342C249.108 454.342 248.421 454.055 247.909 453.481C247.401 452.903 247.147 452.114 247.147 451.114V450.932C247.147 450.315 247.261 449.766 247.487 449.286C247.714 448.805 248.038 448.432 248.46 448.167C248.886 447.901 249.388 447.768 249.966 447.768C250.677 447.768 251.266 447.981 251.735 448.407C252.208 448.833 252.46 449.385 252.491 450.065H251.466C251.434 449.655 251.278 449.319 250.997 449.057C250.72 448.792 250.376 448.659 249.966 448.659C249.415 448.659 248.987 448.858 248.682 449.256C248.382 449.651 248.231 450.223 248.231 450.973V451.178C248.231 451.909 248.382 452.471 248.682 452.866C248.983 453.26 249.413 453.458 249.972 453.458ZM257.624 453.598C257.202 454.094 256.583 454.342 255.766 454.342C255.091 454.342 254.575 454.147 254.22 453.756C253.868 453.362 253.69 452.78 253.686 452.01V447.885H254.77V451.981C254.77 452.942 255.161 453.422 255.942 453.422C256.77 453.422 257.321 453.114 257.595 452.497V447.885H258.679V454.225H257.647L257.624 453.598ZM264.022 452.543C264.022 452.25 263.911 452.024 263.688 451.864C263.47 451.7 263.085 451.559 262.534 451.442C261.987 451.325 261.552 451.184 261.227 451.02C260.907 450.856 260.669 450.661 260.513 450.434C260.36 450.208 260.284 449.938 260.284 449.625C260.284 449.106 260.503 448.667 260.94 448.307C261.382 447.948 261.944 447.768 262.628 447.768C263.347 447.768 263.929 447.954 264.374 448.325C264.823 448.696 265.048 449.17 265.048 449.749H263.958C263.958 449.452 263.831 449.196 263.577 448.981C263.327 448.766 263.011 448.659 262.628 448.659C262.233 448.659 261.925 448.745 261.702 448.917C261.479 449.088 261.368 449.313 261.368 449.59C261.368 449.852 261.472 450.049 261.679 450.182C261.886 450.315 262.259 450.442 262.798 450.563C263.341 450.684 263.78 450.829 264.116 450.997C264.452 451.165 264.7 451.368 264.86 451.606C265.024 451.84 265.106 452.127 265.106 452.467C265.106 453.034 264.88 453.489 264.427 453.833C263.974 454.172 263.386 454.342 262.663 454.342C262.155 454.342 261.706 454.252 261.315 454.073C260.925 453.893 260.618 453.643 260.395 453.323C260.177 452.999 260.067 452.649 260.067 452.274H261.151C261.171 452.637 261.315 452.926 261.585 453.141C261.858 453.352 262.218 453.458 262.663 453.458C263.073 453.458 263.401 453.375 263.647 453.211C263.897 453.043 264.022 452.821 264.022 452.543ZM267.989 446.35V447.885H269.173V448.723H267.989V452.655C267.989 452.909 268.042 453.1 268.147 453.229C268.253 453.354 268.432 453.417 268.686 453.417C268.811 453.417 268.983 453.393 269.202 453.346V454.225C268.917 454.303 268.64 454.342 268.37 454.342C267.886 454.342 267.52 454.196 267.274 453.903C267.028 453.61 266.905 453.194 266.905 452.655V448.723H265.751V447.885H266.905V446.35H267.989ZM270.04 450.997C270.04 450.375 270.161 449.817 270.403 449.321C270.649 448.825 270.989 448.442 271.423 448.172C271.86 447.903 272.358 447.768 272.917 447.768C273.78 447.768 274.477 448.067 275.009 448.665C275.544 449.262 275.811 450.057 275.811 451.049V451.125C275.811 451.743 275.692 452.297 275.454 452.79C275.22 453.278 274.882 453.659 274.44 453.932C274.003 454.206 273.499 454.342 272.929 454.342C272.069 454.342 271.372 454.043 270.837 453.446C270.306 452.848 270.04 452.057 270.04 451.073V450.997ZM271.13 451.125C271.13 451.829 271.292 452.393 271.616 452.819C271.944 453.245 272.382 453.458 272.929 453.458C273.479 453.458 273.917 453.243 274.241 452.813C274.565 452.379 274.727 451.774 274.727 450.997C274.727 450.301 274.561 449.739 274.229 449.309C273.901 448.875 273.464 448.659 272.917 448.659C272.382 448.659 271.95 448.872 271.622 449.297C271.294 449.723 271.13 450.333 271.13 451.125ZM278.19 447.885L278.22 448.588C278.684 448.042 279.311 447.768 280.1 447.768C280.987 447.768 281.591 448.108 281.911 448.788C282.122 448.483 282.395 448.237 282.731 448.049C283.071 447.862 283.472 447.768 283.932 447.768C285.323 447.768 286.03 448.504 286.054 449.977V454.225H284.97V450.042C284.97 449.588 284.866 449.25 284.659 449.028C284.452 448.801 284.104 448.688 283.616 448.688C283.214 448.688 282.88 448.809 282.614 449.051C282.349 449.29 282.194 449.612 282.151 450.018V454.225H281.061V450.071C281.061 449.149 280.61 448.688 279.708 448.688C278.997 448.688 278.511 448.991 278.249 449.596V454.225H277.165V447.885H278.19Z"
    fill="black" />
  <path
    d="M180.299 689.597C209.289 689.597 232.79 680.061 232.79 668.298C232.79 656.535 209.289 647 180.299 647C151.309 647 127.808 656.535 127.808 668.298C127.808 680.061 151.309 689.597 180.299 689.597Z"
    fill="white" stroke="#231F20" stroke-width="1.7269" />
  <path
    d="M145.207 668.886C144.785 669.382 144.166 669.63 143.349 669.63C142.673 669.63 142.158 669.434 141.802 669.044C141.451 668.649 141.273 668.067 141.269 667.298V663.173H142.353V667.268C142.353 668.229 142.744 668.71 143.525 668.71C144.353 668.71 144.904 668.401 145.177 667.784V663.173H146.261V669.513H145.23L145.207 668.886ZM149.091 669.513H148.007V663.173H149.091V669.513ZM147.92 661.491C147.92 661.315 147.972 661.167 148.078 661.046C148.187 660.925 148.347 660.864 148.558 660.864C148.769 660.864 148.929 660.925 149.039 661.046C149.148 661.167 149.203 661.315 149.203 661.491C149.203 661.667 149.148 661.813 149.039 661.93C148.929 662.048 148.769 662.106 148.558 662.106C148.347 662.106 148.187 662.048 148.078 661.93C147.972 661.813 147.92 661.667 147.92 661.491ZM153.087 666.331H150.228V665.446H153.087V666.331ZM154.681 669.513V664.011H153.679V663.173H154.681V662.522C154.681 661.843 154.863 661.317 155.226 660.946C155.589 660.575 156.103 660.389 156.767 660.389C157.017 660.389 157.265 660.423 157.511 660.489L157.453 661.368C157.269 661.333 157.074 661.315 156.867 661.315C156.515 661.315 156.244 661.419 156.052 661.626C155.861 661.829 155.765 662.122 155.765 662.505V663.173H157.119V664.011H155.765V669.513H154.681ZM158.033 666.284C158.033 665.663 158.154 665.104 158.396 664.608C158.642 664.112 158.982 663.729 159.416 663.46C159.853 663.19 160.351 663.055 160.91 663.055C161.773 663.055 162.47 663.354 163.002 663.952C163.537 664.55 163.804 665.345 163.804 666.337V666.413C163.804 667.03 163.685 667.585 163.447 668.077C163.212 668.565 162.875 668.946 162.433 669.22C161.996 669.493 161.492 669.63 160.921 669.63C160.062 669.63 159.365 669.331 158.83 668.733C158.298 668.136 158.033 667.345 158.033 666.36V666.284ZM159.123 666.413C159.123 667.116 159.285 667.68 159.609 668.106C159.937 668.532 160.375 668.745 160.921 668.745C161.472 668.745 161.91 668.53 162.234 668.1C162.558 667.667 162.72 667.061 162.72 666.284C162.72 665.589 162.554 665.026 162.222 664.596C161.894 664.163 161.457 663.946 160.91 663.946C160.375 663.946 159.943 664.159 159.615 664.585C159.287 665.011 159.123 665.62 159.123 666.413ZM168.228 664.145C168.064 664.118 167.886 664.104 167.695 664.104C166.984 664.104 166.502 664.407 166.248 665.013V669.513H165.164V663.173H166.218L166.236 663.905C166.591 663.339 167.095 663.055 167.748 663.055C167.959 663.055 168.119 663.083 168.228 663.138V664.145ZM170.25 663.173L170.279 663.876C170.744 663.329 171.371 663.055 172.16 663.055C173.046 663.055 173.65 663.395 173.97 664.075C174.181 663.77 174.455 663.524 174.791 663.337C175.13 663.149 175.531 663.055 175.992 663.055C177.382 663.055 178.089 663.792 178.113 665.264V669.513H177.029V665.329C177.029 664.876 176.925 664.538 176.718 664.315C176.511 664.089 176.164 663.975 175.675 663.975C175.273 663.975 174.939 664.096 174.673 664.339C174.408 664.577 174.254 664.899 174.211 665.305V669.513H173.121V665.358C173.121 664.436 172.67 663.975 171.767 663.975C171.056 663.975 170.57 664.278 170.308 664.884V669.513H169.224V663.173H170.25ZM182.009 666.331H179.15V665.446H182.009V666.331ZM185.613 668.745C186 668.745 186.337 668.628 186.627 668.393C186.916 668.159 187.076 667.866 187.107 667.514H188.132C188.113 667.878 187.988 668.223 187.757 668.552C187.527 668.88 187.218 669.141 186.832 669.337C186.449 669.532 186.043 669.63 185.613 669.63C184.75 669.63 184.062 669.343 183.55 668.768C183.043 668.19 182.789 667.401 182.789 666.401V666.22C182.789 665.602 182.902 665.054 183.129 664.573C183.355 664.093 183.679 663.72 184.101 663.454C184.527 663.188 185.029 663.055 185.607 663.055C186.318 663.055 186.908 663.268 187.377 663.694C187.849 664.12 188.101 664.673 188.132 665.352H187.107C187.076 664.942 186.92 664.606 186.638 664.345C186.361 664.079 186.017 663.946 185.607 663.946C185.056 663.946 184.629 664.145 184.324 664.544C184.023 664.938 183.873 665.511 183.873 666.261V666.466C183.873 667.196 184.023 667.759 184.324 668.153C184.625 668.548 185.054 668.745 185.613 668.745ZM189.064 666.284C189.064 665.663 189.185 665.104 189.427 664.608C189.673 664.112 190.013 663.729 190.447 663.46C190.884 663.19 191.382 663.055 191.941 663.055C192.804 663.055 193.502 663.354 194.033 663.952C194.568 664.55 194.836 665.345 194.836 666.337V666.413C194.836 667.03 194.716 667.585 194.478 668.077C194.244 668.565 193.906 668.946 193.464 669.22C193.027 669.493 192.523 669.63 191.953 669.63C191.093 669.63 190.396 669.331 189.861 668.733C189.33 668.136 189.064 667.345 189.064 666.36V666.284ZM190.154 666.413C190.154 667.116 190.316 667.68 190.64 668.106C190.968 668.532 191.406 668.745 191.953 668.745C192.504 668.745 192.941 668.53 193.265 668.1C193.589 667.667 193.752 667.061 193.752 666.284C193.752 665.589 193.586 665.026 193.254 664.596C192.925 664.163 192.488 663.946 191.941 663.946C191.406 663.946 190.974 664.159 190.646 664.585C190.318 665.011 190.154 665.62 190.154 666.413ZM199.259 664.145C199.095 664.118 198.918 664.104 198.726 664.104C198.015 664.104 197.533 664.407 197.279 665.013V669.513H196.195V663.173H197.25L197.267 663.905C197.623 663.339 198.127 663.055 198.779 663.055C198.99 663.055 199.15 663.083 199.259 663.138V664.145ZM202.775 669.63C201.916 669.63 201.216 669.348 200.677 668.786C200.138 668.22 199.869 667.464 199.869 666.518V666.319C199.869 665.69 199.988 665.13 200.226 664.638C200.468 664.141 200.804 663.755 201.234 663.477C201.668 663.196 202.136 663.055 202.64 663.055C203.464 663.055 204.105 663.327 204.562 663.87C205.019 664.413 205.248 665.19 205.248 666.202V666.653H200.953C200.968 667.278 201.15 667.784 201.498 668.171C201.849 668.554 202.295 668.745 202.834 668.745C203.216 668.745 203.541 668.667 203.806 668.511C204.072 668.354 204.304 668.147 204.504 667.889L205.166 668.405C204.634 669.221 203.837 669.63 202.775 669.63ZM202.64 663.946C202.203 663.946 201.836 664.106 201.539 664.427C201.242 664.743 201.058 665.188 200.988 665.763H204.164V665.68C204.132 665.13 203.984 664.704 203.718 664.403C203.453 664.098 203.093 663.946 202.64 663.946Z"
    fill="black" />
  <path
    d="M46.4999 43.7347C71.5257 43.7347 91.8131 34.199 91.8131 22.4362C91.8131 10.6734 71.5257 1.1377 46.4999 1.1377C21.4741 1.1377 1.18665 10.6734 1.18665 22.4362C1.18665 34.199 21.4741 43.7347 46.4999 43.7347Z"
    fill="white" stroke="#231F20" stroke-width="1.7269" />
  <path
    d="M19.3011 24.9286C18.8155 25.4997 18.1027 25.7853 17.1627 25.7853C16.3847 25.7853 15.7911 25.5604 15.3819 25.1107C14.9771 24.6565 14.7725 23.9864 14.768 23.1005V18.3515H16.016V23.0668C16.016 24.1731 16.4657 24.7262 17.3651 24.7262C18.3185 24.7262 18.9526 24.371 19.2674 23.6604V18.3515H20.5154V25.6504H19.3281L19.3011 24.9286ZM24.1108 16.5841V18.3515H25.4735V19.3162H24.1108V23.8425C24.1108 24.1349 24.1716 24.3552 24.293 24.5036C24.4144 24.6475 24.6213 24.7195 24.9136 24.7195C25.0575 24.7195 25.2554 24.6925 25.5072 24.6385V25.6504C25.1789 25.7403 24.8596 25.7853 24.5493 25.7853C23.9917 25.7853 23.5712 25.6167 23.2879 25.2794C23.0045 24.9421 22.8629 24.4631 22.8629 23.8425V19.3162H21.534V18.3515H22.8629V16.5841H24.1108ZM28.2932 25.6504H27.0452V18.3515H28.2932V25.6504ZM26.944 16.4155C26.944 16.2131 27.0048 16.0422 27.1262 15.9028C27.2521 15.7634 27.4365 15.6937 27.6793 15.6937C27.9222 15.6937 28.1066 15.7634 28.2325 15.9028C28.3584 16.0422 28.4214 16.2131 28.4214 16.4155C28.4214 16.6179 28.3584 16.7865 28.2325 16.9214C28.1066 17.0563 27.9222 17.1238 27.6793 17.1238C27.4365 17.1238 27.2521 17.0563 27.1262 16.9214C27.0048 16.7865 26.944 16.6179 26.944 16.4155ZM31.6526 25.6504H30.4046V15.289H31.6526V25.6504ZM36.2531 21.9875H32.9612V20.9689H36.2531V21.9875ZM39.1673 16.5841V18.3515H40.5299V19.3162H39.1673V23.8425C39.1673 24.1349 39.228 24.3552 39.3494 24.5036C39.4708 24.6475 39.6777 24.7195 39.97 24.7195C40.1139 24.7195 40.3118 24.6925 40.5636 24.6385V25.6504C40.2354 25.7403 39.9161 25.7853 39.6058 25.7853C39.0481 25.7853 38.6276 25.6167 38.3443 25.2794C38.061 24.9421 37.9193 24.4631 37.9193 23.8425V19.3162H36.5904V18.3515H37.9193V16.5841H39.1673ZM45.0226 25.7853C44.0332 25.7853 43.2282 25.4615 42.6076 24.8139C41.987 24.1618 41.6767 23.2916 41.6767 22.2033V21.974C41.6767 21.2499 41.8139 20.6046 42.0882 20.038C42.367 19.4668 42.7538 19.0216 43.2484 18.7023C43.7476 18.3785 44.2873 18.2166 44.8674 18.2166C45.8163 18.2166 46.5538 18.5292 47.08 19.1543C47.6062 19.7794 47.8693 20.6743 47.8693 21.8391V22.3585H42.9247C42.9426 23.078 43.1518 23.6604 43.552 24.1056C43.9567 24.5463 44.4694 24.7667 45.09 24.7667C45.5307 24.7667 45.904 24.6768 46.2098 24.4969C46.5156 24.317 46.7832 24.0786 47.0126 23.7818L47.7748 24.3754C47.1632 25.3154 46.2458 25.7853 45.0226 25.7853ZM44.8674 19.242C44.3637 19.242 43.941 19.4263 43.5992 19.7951C43.2574 20.1594 43.0461 20.672 42.9651 21.3331H46.6213V21.2387C46.5853 20.6046 46.4144 20.1144 46.1086 19.7681C45.8028 19.4173 45.3891 19.242 44.8674 19.242ZM53.5694 23.7144C53.5694 23.3771 53.4412 23.1162 53.1849 22.9319C52.9331 22.743 52.4901 22.5811 51.856 22.4462C51.2264 22.3113 50.725 22.1494 50.3517 21.9605C49.9829 21.7716 49.7086 21.5467 49.5287 21.2859C49.3533 21.0251 49.2656 20.7148 49.2656 20.355C49.2656 19.7569 49.5175 19.251 50.0212 18.8372C50.5293 18.4235 51.1769 18.2166 51.9639 18.2166C52.7914 18.2166 53.4615 18.4302 53.9741 18.8575C54.4913 19.2847 54.7499 19.8311 54.7499 20.4967H53.4952C53.4952 20.1549 53.349 19.8603 53.0567 19.613C52.7689 19.3656 52.4046 19.242 51.9639 19.242C51.5097 19.242 51.1544 19.3409 50.8981 19.5388C50.6418 19.7366 50.5136 19.9952 50.5136 20.3145C50.5136 20.6158 50.6328 20.8429 50.8711 20.9958C51.1095 21.1487 51.5389 21.2949 52.1595 21.4343C52.7846 21.5737 53.2906 21.7401 53.6773 21.9335C54.0641 22.1269 54.3497 22.3607 54.534 22.6351C54.7229 22.9049 54.8174 23.2354 54.8174 23.6267C54.8174 24.2788 54.5565 24.8027 54.0349 25.1984C53.5132 25.5897 52.8364 25.7853 52.0044 25.7853C51.4198 25.7853 50.9026 25.6819 50.4529 25.475C50.0032 25.2681 49.6501 24.9803 49.3938 24.6115C49.142 24.2383 49.016 23.8358 49.016 23.4041H50.264C50.2865 23.8223 50.4529 24.1551 50.7632 24.4024C51.078 24.6453 51.4917 24.7667 52.0044 24.7667C52.4766 24.7667 52.8544 24.6723 53.1377 24.4834C53.4255 24.29 53.5694 24.0337 53.5694 23.7144ZM58.1362 16.5841V18.3515H59.4989V19.3162H58.1362V23.8425C58.1362 24.1349 58.197 24.3552 58.3184 24.5036C58.4398 24.6475 58.6467 24.7195 58.939 24.7195C59.0829 24.7195 59.2808 24.6925 59.5326 24.6385V25.6504C59.2043 25.7403 58.885 25.7853 58.5747 25.7853C58.0171 25.7853 57.5966 25.6167 57.3133 25.2794C57.03 24.9421 56.8883 24.4631 56.8883 23.8425V19.3162H55.5594V18.3515H56.8883V16.5841H58.1362ZM62.3186 25.6504H61.0706V18.3515H62.3186V25.6504ZM60.9694 16.4155C60.9694 16.2131 61.0302 16.0422 61.1516 15.9028C61.2775 15.7634 61.4619 15.6937 61.7047 15.6937C61.9476 15.6937 62.132 15.7634 62.2579 15.9028C62.3838 16.0422 62.4468 16.2131 62.4468 16.4155C62.4468 16.6179 62.3838 16.7865 62.2579 16.9214C62.132 17.0563 61.9476 17.1238 61.7047 17.1238C61.4619 17.1238 61.2775 17.0563 61.1516 16.9214C61.0302 16.7865 60.9694 16.6179 60.9694 16.4155ZM65.5026 18.3515L65.5431 19.2689C66.1007 18.5674 66.8292 18.2166 67.7287 18.2166C69.2712 18.2166 70.0492 19.0868 70.0627 20.8272V25.6504H68.8147V20.8205C68.8102 20.2943 68.6888 19.9053 68.4505 19.6534C68.2166 19.4016 67.8501 19.2757 67.3509 19.2757C66.9462 19.2757 66.5909 19.3836 66.2851 19.5995C65.9793 19.8153 65.7409 20.0987 65.57 20.4494V25.6504H64.3221V18.3515H65.5026ZM71.6479 21.9402C71.6479 20.8025 71.911 19.8985 72.4372 19.2285C72.9633 18.5539 73.6604 18.2166 74.5283 18.2166C75.4188 18.2166 76.1136 18.5314 76.6128 19.161L76.6735 18.3515H77.8135V25.475C77.8135 26.4194 77.5324 27.1637 76.9703 27.7078C76.4127 28.252 75.6616 28.5241 74.7172 28.5241C74.1911 28.5241 73.6761 28.4116 73.1725 28.1868C72.6688 27.9619 72.2843 27.6539 72.0189 27.2626L72.6665 26.5138C73.2017 27.1749 73.856 27.5055 74.6295 27.5055C75.2366 27.5055 75.7088 27.3346 76.0461 26.9928C76.3879 26.651 76.5588 26.1698 76.5588 25.5492V24.9219C76.0596 25.4975 75.3783 25.7853 74.5149 25.7853C73.6604 25.7853 72.9678 25.4413 72.4372 24.7532C71.911 24.0651 71.6479 23.1275 71.6479 21.9402ZM72.9026 22.0819C72.9026 22.9049 73.0713 23.5525 73.4086 24.0247C73.7458 24.4924 74.218 24.7262 74.8252 24.7262C75.6122 24.7262 76.19 24.3687 76.5588 23.6537V20.3213C76.1766 19.6242 75.6032 19.2757 74.8387 19.2757C74.2315 19.2757 73.7571 19.5118 73.4153 19.984C73.0735 20.4562 72.9026 21.1555 72.9026 22.0819Z"
    fill="black" />
  <path
    d="M180.299 904.884C199.478 904.884 215.026 895.348 215.026 883.586C215.026 871.823 199.478 862.287 180.299 862.287C161.12 862.287 145.572 871.823 145.572 883.586C145.572 895.348 161.12 904.884 180.299 904.884Z"
    fill="white" stroke="#231F20" stroke-width="1.7269" />
  <path
    d="M162.97 884.173C162.548 884.669 161.929 884.917 161.113 884.917C160.437 884.917 159.922 884.722 159.566 884.331C159.215 883.937 159.037 883.354 159.033 882.585V878.46H160.117V882.556C160.117 883.517 160.507 883.997 161.289 883.997C162.117 883.997 162.668 883.688 162.941 883.071V878.46H164.025V884.8H162.994L162.97 884.173ZM166.855 884.8H165.771V878.46H166.855V884.8ZM165.683 876.778C165.683 876.603 165.736 876.454 165.841 876.333C165.951 876.212 166.111 876.151 166.322 876.151C166.533 876.151 166.693 876.212 166.802 876.333C166.912 876.454 166.966 876.603 166.966 876.778C166.966 876.954 166.912 877.101 166.802 877.218C166.693 877.335 166.533 877.394 166.322 877.394C166.111 877.394 165.951 877.335 165.841 877.218C165.736 877.101 165.683 876.954 165.683 876.778ZM170.851 881.618H167.992V880.733H170.851V881.618ZM174.455 884.032C174.841 884.032 175.179 883.915 175.468 883.681C175.757 883.446 175.918 883.153 175.949 882.802H176.974C176.955 883.165 176.83 883.511 176.599 883.839C176.369 884.167 176.06 884.429 175.673 884.624C175.291 884.819 174.884 884.917 174.455 884.917C173.591 884.917 172.904 884.63 172.392 884.056C171.884 883.478 171.631 882.688 171.631 881.688V881.507C171.631 880.89 171.744 880.341 171.97 879.86C172.197 879.38 172.521 879.007 172.943 878.741C173.369 878.476 173.871 878.343 174.449 878.343C175.16 878.343 175.75 878.556 176.218 878.981C176.691 879.407 176.943 879.96 176.974 880.64H175.949C175.918 880.229 175.761 879.894 175.48 879.632C175.203 879.366 174.859 879.233 174.449 879.233C173.898 879.233 173.47 879.433 173.166 879.831C172.865 880.226 172.715 880.798 172.715 881.548V881.753C172.715 882.483 172.865 883.046 173.166 883.44C173.466 883.835 173.896 884.032 174.455 884.032ZM177.906 881.571C177.906 880.95 178.027 880.392 178.269 879.896C178.515 879.399 178.855 879.017 179.289 878.747C179.726 878.478 180.224 878.343 180.783 878.343C181.646 878.343 182.343 878.642 182.875 879.239C183.41 879.837 183.677 880.632 183.677 881.624V881.7C183.677 882.317 183.558 882.872 183.32 883.364C183.086 883.853 182.748 884.233 182.306 884.507C181.869 884.78 181.365 884.917 180.795 884.917C179.935 884.917 179.238 884.618 178.703 884.021C178.172 883.423 177.906 882.632 177.906 881.647V881.571ZM178.996 881.7C178.996 882.403 179.158 882.968 179.482 883.394C179.81 883.819 180.248 884.032 180.795 884.032C181.345 884.032 181.783 883.817 182.107 883.388C182.431 882.954 182.593 882.349 182.593 881.571C182.593 880.876 182.427 880.313 182.095 879.884C181.767 879.45 181.33 879.233 180.783 879.233C180.248 879.233 179.816 879.446 179.488 879.872C179.16 880.298 178.996 880.907 178.996 881.7ZM188.101 879.433C187.937 879.405 187.759 879.392 187.568 879.392C186.857 879.392 186.375 879.694 186.121 880.3V884.8H185.037V878.46H186.091L186.109 879.192C186.465 878.626 186.968 878.343 187.621 878.343C187.832 878.343 187.992 878.37 188.101 878.425V879.433ZM191.617 884.917C190.757 884.917 190.058 884.636 189.519 884.073C188.98 883.507 188.711 882.751 188.711 881.806V881.606C188.711 880.978 188.83 880.417 189.068 879.925C189.31 879.429 189.646 879.042 190.076 878.765C190.509 878.483 190.978 878.343 191.482 878.343C192.306 878.343 192.947 878.614 193.404 879.157C193.861 879.7 194.09 880.478 194.09 881.489V881.94H189.795C189.81 882.565 189.992 883.071 190.34 883.458C190.691 883.841 191.136 884.032 191.675 884.032C192.058 884.032 192.382 883.954 192.648 883.798C192.914 883.642 193.146 883.435 193.345 883.177L194.007 883.692C193.476 884.509 192.679 884.917 191.617 884.917ZM191.482 879.233C191.045 879.233 190.677 879.394 190.381 879.714C190.084 880.03 189.9 880.476 189.83 881.05H193.006V880.968C192.974 880.417 192.826 879.991 192.56 879.69C192.295 879.386 191.935 879.233 191.482 879.233Z"
    fill="black" />
  <path d="M211.221 1.1377H149.377V43.7347H211.221V1.1377Z" fill="white" stroke="#231F20" stroke-width="1.7269" />
  <path
    d="M162.597 20.4277C162.597 19.4551 162.828 18.6738 163.289 18.084C163.75 17.4902 164.353 17.1934 165.099 17.1934C165.841 17.1934 166.429 17.4473 166.863 17.9551V14.6504H167.947V23.6504H166.951L166.898 22.9707C166.464 23.502 165.861 23.7676 165.087 23.7676C164.353 23.7676 163.753 23.4668 163.289 22.8652C162.828 22.2637 162.597 21.4785 162.597 20.5098V20.4277ZM163.681 20.5508C163.681 21.2695 163.83 21.832 164.126 22.2383C164.423 22.6445 164.834 22.8477 165.357 22.8477C166.044 22.8477 166.546 22.5391 166.863 21.9219V19.0098C166.539 18.4121 166.041 18.1133 165.369 18.1133C164.837 18.1133 164.423 18.3184 164.126 18.7285C163.83 19.1387 163.681 19.7461 163.681 20.5508ZM172.265 23.7676C171.406 23.7676 170.707 23.4863 170.168 22.9238C169.628 22.3574 169.359 21.6016 169.359 20.6562V20.457C169.359 19.8281 169.478 19.2676 169.716 18.7754C169.959 18.2793 170.294 17.8926 170.724 17.6152C171.158 17.334 171.626 17.1934 172.13 17.1934C172.955 17.1934 173.595 17.4648 174.052 18.0078C174.509 18.5508 174.738 19.3281 174.738 20.3398V20.791H170.443C170.459 21.416 170.64 21.9219 170.988 22.3086C171.339 22.6914 171.785 22.8828 172.324 22.8828C172.707 22.8828 173.031 22.8047 173.296 22.6484C173.562 22.4922 173.794 22.2852 173.994 22.0273L174.656 22.543C174.125 23.3594 173.328 23.7676 172.265 23.7676ZM172.13 18.084C171.693 18.084 171.326 18.2441 171.029 18.5645C170.732 18.8809 170.548 19.3262 170.478 19.9004H173.654V19.8184C173.623 19.2676 173.474 18.8418 173.209 18.541C172.943 18.2363 172.584 18.084 172.13 18.084ZM177.017 17.3105L177.046 18.0137C177.511 17.4668 178.138 17.1934 178.927 17.1934C179.814 17.1934 180.418 17.5332 180.738 18.2129C180.949 17.9082 181.222 17.6621 181.558 17.4746C181.898 17.2871 182.298 17.1934 182.759 17.1934C184.15 17.1934 184.857 17.9297 184.88 19.4023V23.6504H183.796V19.4668C183.796 19.0137 183.693 18.6758 183.486 18.4531C183.279 18.2266 182.931 18.1133 182.443 18.1133C182.041 18.1133 181.707 18.2344 181.441 18.4766C181.175 18.7148 181.021 19.0371 180.978 19.4434V23.6504H179.888V19.4961C179.888 18.5742 179.437 18.1133 178.535 18.1133C177.824 18.1133 177.337 18.416 177.076 19.0215V23.6504H175.992V17.3105H177.017ZM186.234 20.4219C186.234 19.8008 186.355 19.2422 186.597 18.7461C186.843 18.25 187.183 17.8672 187.617 17.5977C188.054 17.3281 188.552 17.1934 189.111 17.1934C189.974 17.1934 190.671 17.4922 191.203 18.0898C191.738 18.6875 192.005 19.4824 192.005 20.4746V20.5508C192.005 21.168 191.886 21.7227 191.648 22.2148C191.414 22.7031 191.076 23.084 190.634 23.3574C190.197 23.6309 189.693 23.7676 189.123 23.7676C188.263 23.7676 187.566 23.4688 187.031 22.8711C186.5 22.2734 186.234 21.4824 186.234 20.498V20.4219ZM187.324 20.5508C187.324 21.2539 187.486 21.8184 187.81 22.2441C188.138 22.6699 188.576 22.8828 189.123 22.8828C189.673 22.8828 190.111 22.668 190.435 22.2383C190.759 21.8047 190.921 21.1992 190.921 20.4219C190.921 19.7266 190.755 19.1641 190.423 18.7344C190.095 18.3008 189.658 18.084 189.111 18.084C188.576 18.084 188.144 18.2969 187.816 18.7227C187.488 19.1484 187.324 19.7578 187.324 20.5508Z"
    fill="black" />
</svg>
