<svg width="319" height="906" viewBox="0 0 319 906" fill="none" xmlns="http://www.w3.org/2000/svg">
  <path d="M94.6751 258.535L86.9483 272.984C79.2216 287.433 63.768 316.331 56.0412 348.721C48.3145 381.111 48.3145 416.992 48.3145 452.873C48.3145 488.754 48.3145 524.636 66.3884 557.338C84.4623 590.04 120.61 619.563 138.684 634.325L156.758 649.086" stroke="#333333" stroke-width="1.7269"/>
  <path d="M120.216 258.309L130.239 272.796C140.263 287.283 160.309 316.256 180.321 345.228C200.333 374.199 220.312 403.168 230.301 417.653L240.29 432.138" stroke="#333333" stroke-width="1.7269"/>
  <path d="M254.59 474.172V488.563C254.59 502.953 254.59 531.735 244.541 560.649C234.493 589.563 214.397 618.609 204.348 633.132L194.3 647.655" stroke="#333333" stroke-width="1.7269"/>
  <path d="M180.112 689.459V703.85C180.112 718.241 180.112 747.023 180.112 775.804C180.112 804.586 180.112 833.368 180.112 847.759V862.15" stroke="#333333" stroke-width="1.7269"/>
  <path d="M165.424 43.597L155.5 57.9878C145.575 72.3787 125.727 101.16 115.802 129.942C105.878 158.724 105.878 187.506 105.878 201.896V216.287" stroke="#333333" stroke-width="1.7269"/>
  <path d="M206.238 43.597L223.891 57.9878C241.543 72.3787 276.848 101.16 294.501 133.492C312.153 165.823 312.153 201.705 312.153 237.586C312.153 273.467 312.153 309.348 304.427 341.737C296.7 374.126 281.248 403.022 273.522 417.47L265.795 431.919" stroke="#333333" stroke-width="1.7269"/>
  <path d="M105.878 258.884C140.188 258.884 168.002 249.349 168.002 237.586C168.002 225.823 140.188 216.287 105.878 216.287C71.568 216.287 43.7544 225.823 43.7544 237.586C43.7544 249.349 71.568 258.884 105.878 258.884Z" fill="white" stroke="#231F20" stroke-width="1.7269"/>
  <path d="M63.2639 242.141C62.7782 242.712 62.0654 242.997 61.1255 242.997C60.3475 242.997 59.7539 242.772 59.3446 242.323C58.9399 241.868 58.7353 241.198 58.7308 240.312V235.563H59.9787V240.279C59.9787 241.385 60.4284 241.938 61.3279 241.938C62.2813 241.938 62.9154 241.583 63.2302 240.872V235.563H64.4781V242.862H63.2909L63.2639 242.141ZM67.7363 242.862H66.4883V235.563H67.7363V242.862ZM66.3872 233.627C66.3872 233.425 66.4479 233.254 66.5693 233.115C66.6952 232.975 66.8796 232.906 67.1224 232.906C67.3653 232.906 67.5497 232.975 67.6756 233.115C67.8015 233.254 67.8645 233.425 67.8645 233.627C67.8645 233.83 67.8015 233.998 67.6756 234.133C67.5497 234.268 67.3653 234.336 67.1224 234.336C66.8796 234.336 66.6952 234.268 66.5693 234.133C66.4479 233.998 66.3872 233.83 66.3872 233.627ZM72.3369 239.199H69.045V238.181H72.3369V239.199ZM74.1717 242.862V236.528H73.0182V235.563H74.1717V234.815C74.1717 234.032 74.3808 233.427 74.7991 233C75.2173 232.573 75.8087 232.359 76.5732 232.359C76.861 232.359 77.1466 232.397 77.4299 232.474L77.3624 233.486C77.1511 233.445 76.9262 233.425 76.6879 233.425C76.2831 233.425 75.9706 233.544 75.7502 233.783C75.5299 234.016 75.4197 234.354 75.4197 234.794V235.563H76.9779V236.528H75.4197V242.862H74.1717ZM78.0303 239.145C78.0303 238.43 78.1697 237.787 78.4485 237.216C78.7318 236.645 79.1231 236.204 79.6223 235.894C80.1259 235.584 80.6993 235.429 81.3424 235.429C82.3363 235.429 83.139 235.773 83.7506 236.461C84.3667 237.149 84.6748 238.064 84.6748 239.206V239.294C84.6748 240.004 84.5376 240.643 84.2633 241.21C83.9935 241.772 83.6045 242.21 83.0963 242.525C82.5926 242.84 82.0125 242.997 81.3559 242.997C80.3665 242.997 79.5638 242.653 78.9477 241.965C78.3361 241.277 78.0303 240.366 78.0303 239.233V239.145ZM79.285 239.294C79.285 240.103 79.4716 240.753 79.8449 241.243C80.2226 241.734 80.7263 241.979 81.3559 241.979C81.99 241.979 82.4937 241.731 82.8669 241.237C83.2402 240.737 83.4268 240.04 83.4268 239.145C83.4268 238.345 83.2357 237.697 82.8535 237.203C82.4757 236.703 81.972 236.454 81.3424 236.454C80.7263 236.454 80.2294 236.699 79.8516 237.189C79.4739 237.679 79.285 238.381 79.285 239.294ZM89.7678 236.683C89.5789 236.652 89.3743 236.636 89.154 236.636C88.3355 236.636 87.7801 236.985 87.4878 237.682V242.862H86.2398V235.563H87.454L87.4743 236.407C87.8835 235.755 88.4636 235.429 89.2147 235.429C89.4575 235.429 89.6419 235.46 89.7678 235.523V236.683ZM92.0951 235.563L92.1288 236.373C92.664 235.743 93.3858 235.429 94.2942 235.429C95.315 235.429 96.0099 235.82 96.3786 236.602C96.6215 236.251 96.9363 235.968 97.323 235.752C97.7143 235.536 98.1752 235.429 98.7059 235.429C100.307 235.429 101.121 236.276 101.148 237.972V242.862H99.8999V238.046C99.8999 237.524 99.7807 237.135 99.5424 236.879C99.304 236.618 98.9038 236.488 98.3416 236.488C97.8784 236.488 97.4939 236.627 97.1881 236.906C96.8823 237.18 96.7047 237.551 96.6552 238.019V242.862H95.4005V238.08C95.4005 237.018 94.8811 236.488 93.8422 236.488C93.0238 236.488 92.4639 236.836 92.1625 237.533V242.862H90.9146V235.563H92.0951ZM105.634 239.199H102.342V238.181H105.634V239.199ZM111.361 242.862C111.289 242.718 111.23 242.462 111.185 242.093C110.605 242.696 109.913 242.997 109.108 242.997C108.388 242.997 107.797 242.795 107.334 242.39C106.875 241.981 106.646 241.464 106.646 240.839C106.646 240.079 106.933 239.489 107.509 239.071C108.089 238.648 108.903 238.437 109.951 238.437H111.165V237.864C111.165 237.428 111.035 237.081 110.774 236.825C110.513 236.564 110.129 236.434 109.62 236.434C109.175 236.434 108.802 236.546 108.501 236.771C108.199 236.996 108.049 237.268 108.049 237.587H106.794C106.794 237.223 106.922 236.872 107.179 236.535C107.439 236.193 107.79 235.923 108.231 235.725C108.676 235.527 109.164 235.429 109.695 235.429C110.536 235.429 111.194 235.64 111.671 236.063C112.148 236.481 112.395 237.059 112.413 237.796V241.156C112.413 241.826 112.499 242.359 112.67 242.754V242.862H111.361ZM109.29 241.911C109.681 241.911 110.052 241.81 110.403 241.608C110.754 241.405 111.008 241.142 111.165 240.818V239.321H110.187C108.658 239.321 107.894 239.768 107.894 240.663C107.894 241.054 108.024 241.36 108.285 241.581C108.546 241.801 108.881 241.911 109.29 241.911ZM115.55 235.563L115.59 236.481C116.148 235.779 116.877 235.429 117.776 235.429C119.319 235.429 120.097 236.299 120.11 238.039V242.862H118.862V238.032C118.858 237.506 118.736 237.117 118.498 236.865C118.264 236.614 117.897 236.488 117.398 236.488C116.994 236.488 116.638 236.596 116.332 236.811C116.027 237.027 115.788 237.311 115.617 237.661V242.862H114.369V235.563H115.55ZM121.695 239.152C121.695 238.014 121.958 237.11 122.485 236.44C123.011 235.766 123.708 235.429 124.576 235.429C125.466 235.429 126.161 235.743 126.66 236.373L126.721 235.563H127.861V242.687C127.861 243.631 127.58 244.376 127.018 244.92C126.46 245.464 125.709 245.736 124.765 245.736C124.238 245.736 123.724 245.624 123.22 245.399C122.716 245.174 122.332 244.866 122.066 244.475L122.714 243.726C123.249 244.387 123.903 244.717 124.677 244.717C125.284 244.717 125.756 244.546 126.094 244.205C126.435 243.863 126.606 243.382 126.606 242.761V242.134C126.107 242.709 125.426 242.997 124.562 242.997C123.708 242.997 123.015 242.653 122.485 241.965C121.958 241.277 121.695 240.339 121.695 239.152ZM122.95 239.294C122.95 240.117 123.119 240.764 123.456 241.237C123.793 241.704 124.265 241.938 124.873 241.938C125.66 241.938 126.237 241.581 126.606 240.866V237.533C126.224 236.836 125.651 236.488 124.886 236.488C124.279 236.488 123.804 236.724 123.463 237.196C123.121 237.668 122.95 238.367 122.95 239.294ZM134.256 242.141C133.77 242.712 133.057 242.997 132.117 242.997C131.339 242.997 130.746 242.772 130.337 242.323C129.932 241.868 129.727 241.198 129.723 240.312V235.563H130.971V240.279C130.971 241.385 131.42 241.938 132.32 241.938C133.273 241.938 133.907 241.583 134.222 240.872V235.563H135.47V242.862H134.283L134.256 242.141ZM138.728 242.862H137.48V232.501H138.728V242.862ZM145.238 242.862C145.166 242.718 145.107 242.462 145.062 242.093C144.482 242.696 143.79 242.997 142.985 242.997C142.265 242.997 141.674 242.795 141.211 242.39C140.752 241.981 140.523 241.464 140.523 240.839C140.523 240.079 140.81 239.489 141.386 239.071C141.966 238.648 142.78 238.437 143.828 238.437H145.042V237.864C145.042 237.428 144.912 237.081 144.651 236.825C144.39 236.564 144.006 236.434 143.497 236.434C143.052 236.434 142.679 236.546 142.378 236.771C142.076 236.996 141.926 237.268 141.926 237.587H140.671C140.671 237.223 140.799 236.872 141.056 236.535C141.316 236.193 141.667 235.923 142.108 235.725C142.553 235.527 143.041 235.429 143.572 235.429C144.413 235.429 145.071 235.64 145.548 236.063C146.025 236.481 146.272 237.059 146.29 237.796V241.156C146.29 241.826 146.376 242.359 146.547 242.754V242.862H145.238ZM143.167 241.911C143.558 241.911 143.929 241.81 144.28 241.608C144.631 241.405 144.885 241.142 145.042 240.818V239.321H144.064C142.535 239.321 141.771 239.768 141.771 240.663C141.771 241.054 141.901 241.36 142.162 241.581C142.423 241.801 142.758 241.911 143.167 241.911ZM151.774 236.683C151.586 236.652 151.381 236.636 151.161 236.636C150.342 236.636 149.787 236.985 149.494 237.682V242.862H148.246V235.563H149.461L149.481 236.407C149.89 235.755 150.47 235.429 151.221 235.429C151.464 235.429 151.649 235.46 151.774 235.523V236.683Z" fill="black"/>
  <path d="M254.59 474.172C289.168 474.172 317.199 464.636 317.199 452.873C317.199 441.11 289.168 431.575 254.59 431.575C220.011 431.575 191.98 441.11 191.98 452.873C191.98 464.636 220.011 474.172 254.59 474.172Z" fill="white" stroke="#231F20" stroke-width="1.7269"/>
  <path d="M212.264 457.141C211.778 457.712 211.065 457.997 210.125 457.997C209.347 457.997 208.754 457.772 208.345 457.323C207.94 456.868 207.735 456.198 207.731 455.312V450.563H208.979V455.279C208.979 456.385 209.428 456.938 210.328 456.938C211.281 456.938 211.915 456.583 212.23 455.872V450.563H213.478V457.862H212.291L212.264 457.141ZM216.736 457.862H215.488V450.563H216.736V457.862ZM215.387 448.627C215.387 448.425 215.448 448.254 215.569 448.115C215.695 447.975 215.88 447.906 216.122 447.906C216.365 447.906 216.55 447.975 216.676 448.115C216.802 448.254 216.864 448.425 216.864 448.627C216.864 448.83 216.802 448.998 216.676 449.133C216.55 449.268 216.365 449.336 216.122 449.336C215.88 449.336 215.695 449.268 215.569 449.133C215.448 448.998 215.387 448.83 215.387 448.627ZM221.337 454.199H218.045V453.181H221.337V454.199ZM223.172 457.862V451.528H222.018V450.563H223.172V449.815C223.172 449.032 223.381 448.427 223.799 448C224.217 447.573 224.809 447.359 225.573 447.359C225.861 447.359 226.147 447.397 226.43 447.474L226.362 448.486C226.151 448.445 225.926 448.425 225.688 448.425C225.283 448.425 224.971 448.544 224.75 448.783C224.53 449.016 224.42 449.354 224.42 449.794V450.563H225.978V451.528H224.42V457.862H223.172ZM227.03 454.145C227.03 453.43 227.17 452.787 227.448 452.216C227.732 451.645 228.123 451.204 228.622 450.894C229.126 450.584 229.699 450.429 230.342 450.429C231.336 450.429 232.139 450.773 232.751 451.461C233.367 452.149 233.675 453.064 233.675 454.206V454.294C233.675 455.004 233.538 455.643 233.263 456.21C232.993 456.772 232.604 457.21 232.096 457.525C231.593 457.84 231.012 457.997 230.356 457.997C229.367 457.997 228.564 457.653 227.948 456.965C227.336 456.277 227.03 455.366 227.03 454.233V454.145ZM228.285 454.294C228.285 455.103 228.472 455.753 228.845 456.243C229.223 456.734 229.726 456.979 230.356 456.979C230.99 456.979 231.494 456.731 231.867 456.237C232.24 455.737 232.427 455.04 232.427 454.145C232.427 453.345 232.236 452.697 231.853 452.203C231.476 451.703 230.972 451.454 230.342 451.454C229.726 451.454 229.229 451.699 228.852 452.189C228.474 452.679 228.285 453.381 228.285 454.294ZM238.768 451.683C238.579 451.652 238.374 451.636 238.154 451.636C237.335 451.636 236.78 451.985 236.488 452.682V457.862H235.24V450.563H236.454L236.474 451.407C236.884 450.755 237.464 450.429 238.215 450.429C238.458 450.429 238.642 450.46 238.768 450.523V451.683ZM241.095 450.563L241.129 451.373C241.664 450.743 242.386 450.429 243.294 450.429C244.315 450.429 245.01 450.82 245.379 451.602C245.621 451.251 245.936 450.968 246.323 450.752C246.714 450.536 247.175 450.429 247.706 450.429C249.307 450.429 250.121 451.276 250.148 452.972V457.862H248.9V453.046C248.9 452.524 248.781 452.135 248.542 451.879C248.304 451.618 247.904 451.488 247.342 451.488C246.878 451.488 246.494 451.627 246.188 451.906C245.882 452.18 245.705 452.551 245.655 453.019V457.862H244.4V453.08C244.4 452.018 243.881 451.488 242.842 451.488C242.024 451.488 241.464 451.836 241.163 452.533V457.862H239.915V450.563H241.095ZM254.634 454.199H251.342V453.181H254.634V454.199ZM258.782 456.979C259.228 456.979 259.617 456.844 259.949 456.574C260.282 456.304 260.467 455.967 260.503 455.562H261.683C261.661 455.98 261.517 456.378 261.251 456.756C260.986 457.134 260.631 457.435 260.185 457.66C259.745 457.885 259.277 457.997 258.782 457.997C257.788 457.997 256.997 457.667 256.408 457.006C255.823 456.34 255.531 455.432 255.531 454.28V454.071C255.531 453.361 255.661 452.729 255.922 452.176C256.183 451.623 256.556 451.193 257.042 450.887C257.532 450.581 258.11 450.429 258.776 450.429C259.594 450.429 260.273 450.674 260.813 451.164C261.357 451.654 261.647 452.29 261.683 453.073H260.503C260.467 452.601 260.287 452.214 259.963 451.913C259.644 451.607 259.248 451.454 258.776 451.454C258.142 451.454 257.649 451.683 257.298 452.142C256.952 452.596 256.779 453.255 256.779 454.118V454.355C256.779 455.195 256.952 455.843 257.298 456.297C257.645 456.752 258.139 456.979 258.782 456.979ZM267.592 457.141C267.107 457.712 266.394 457.997 265.454 457.997C264.676 457.997 264.082 457.772 263.673 457.323C263.268 456.868 263.064 456.198 263.059 455.312V450.563H264.307V455.279C264.307 456.385 264.757 456.938 265.656 456.938C266.61 456.938 267.244 456.583 267.559 455.872V450.563H268.806V457.862H267.619L267.592 457.141ZM274.959 455.926C274.959 455.589 274.83 455.328 274.574 455.144C274.322 454.955 273.879 454.793 273.245 454.658C272.616 454.523 272.114 454.361 271.741 454.172C271.372 453.984 271.098 453.759 270.918 453.498C270.743 453.237 270.655 452.927 270.655 452.567C270.655 451.969 270.907 451.463 271.41 451.049C271.919 450.635 272.566 450.429 273.353 450.429C274.181 450.429 274.851 450.642 275.363 451.069C275.881 451.497 276.139 452.043 276.139 452.709H274.884C274.884 452.367 274.738 452.072 274.446 451.825C274.158 451.578 273.794 451.454 273.353 451.454C272.899 451.454 272.544 451.553 272.287 451.751C272.031 451.949 271.903 452.207 271.903 452.526C271.903 452.828 272.022 453.055 272.26 453.208C272.499 453.361 272.928 453.507 273.549 453.646C274.174 453.786 274.68 453.952 275.067 454.145C275.453 454.339 275.739 454.573 275.923 454.847C276.112 455.117 276.207 455.447 276.207 455.839C276.207 456.491 275.946 457.015 275.424 457.41C274.902 457.802 274.226 457.997 273.394 457.997C272.809 457.997 272.292 457.894 271.842 457.687C271.392 457.48 271.039 457.192 270.783 456.823C270.531 456.45 270.405 456.048 270.405 455.616H271.653C271.676 456.034 271.842 456.367 272.152 456.614C272.467 456.857 272.881 456.979 273.394 456.979C273.866 456.979 274.244 456.884 274.527 456.695C274.815 456.502 274.959 456.246 274.959 455.926ZM279.525 448.796V450.563H280.888V451.528H279.525V456.054C279.525 456.347 279.586 456.567 279.708 456.716C279.829 456.859 280.036 456.931 280.328 456.931C280.472 456.931 280.67 456.904 280.922 456.85V457.862C280.594 457.952 280.274 457.997 279.964 457.997C279.406 457.997 278.986 457.829 278.702 457.491C278.419 457.154 278.277 456.675 278.277 456.054V451.528H276.949V450.563H278.277V448.796H279.525ZM281.886 454.145C281.886 453.43 282.026 452.787 282.305 452.216C282.588 451.645 282.979 451.204 283.478 450.894C283.982 450.584 284.556 450.429 285.199 450.429C286.192 450.429 286.995 450.773 287.607 451.461C288.223 452.149 288.531 453.064 288.531 454.206V454.294C288.531 455.004 288.394 455.643 288.119 456.21C287.85 456.772 287.461 457.21 286.952 457.525C286.449 457.84 285.869 457.997 285.212 457.997C284.223 457.997 283.42 457.653 282.804 456.965C282.192 456.277 281.886 455.366 281.886 454.233V454.145ZM283.141 454.294C283.141 455.103 283.328 455.753 283.701 456.243C284.079 456.734 284.582 456.979 285.212 456.979C285.846 456.979 286.35 456.731 286.723 456.237C287.096 455.737 287.283 455.04 287.283 454.145C287.283 453.345 287.092 452.697 286.71 452.203C286.332 451.703 285.828 451.454 285.199 451.454C284.582 451.454 284.086 451.699 283.708 452.189C283.33 452.679 283.141 453.381 283.141 454.294ZM291.27 450.563L291.303 451.373C291.839 450.743 292.56 450.429 293.469 450.429C294.49 450.429 295.185 450.82 295.553 451.602C295.796 451.251 296.111 450.968 296.498 450.752C296.889 450.536 297.35 450.429 297.881 450.429C299.482 450.429 300.296 451.276 300.322 452.972V457.862H299.075V453.046C299.075 452.524 298.955 452.135 298.717 451.879C298.479 451.618 298.078 451.488 297.516 451.488C297.053 451.488 296.669 451.627 296.363 451.906C296.057 452.18 295.879 452.551 295.83 453.019V457.862H294.575V453.08C294.575 452.018 294.056 451.488 293.017 451.488C292.198 451.488 291.639 451.836 291.337 452.533V457.862H290.089V450.563H291.27Z" fill="black"/>
  <path d="M180.112 689.459C209.102 689.459 232.603 679.923 232.603 668.161C232.603 656.398 209.102 646.862 180.112 646.862C151.123 646.862 127.622 656.398 127.622 668.161C127.622 679.923 151.123 689.459 180.112 689.459Z" fill="white" stroke="#231F20" stroke-width="1.7269"/>
  <path d="M147.264 672.141C146.778 672.712 146.065 672.997 145.125 672.997C144.347 672.997 143.754 672.772 143.345 672.323C142.94 671.868 142.735 671.198 142.731 670.312V665.563H143.979V670.279C143.979 671.385 144.428 671.938 145.328 671.938C146.281 671.938 146.915 671.583 147.23 670.872V665.563H148.478V672.862H147.291L147.264 672.141ZM151.736 672.862H150.488V665.563H151.736V672.862ZM150.387 663.627C150.387 663.425 150.448 663.254 150.569 663.115C150.695 662.975 150.88 662.906 151.122 662.906C151.365 662.906 151.55 662.975 151.676 663.115C151.802 663.254 151.864 663.425 151.864 663.627C151.864 663.83 151.802 663.998 151.676 664.133C151.55 664.268 151.365 664.336 151.122 664.336C150.88 664.336 150.695 664.268 150.569 664.133C150.448 663.998 150.387 663.83 150.387 663.627ZM156.337 669.199H153.045V668.181H156.337V669.199ZM158.172 672.862V666.528H157.018V665.563H158.172V664.815C158.172 664.032 158.381 663.427 158.799 663C159.217 662.573 159.809 662.359 160.573 662.359C160.861 662.359 161.147 662.397 161.43 662.474L161.362 663.486C161.151 663.445 160.926 663.425 160.688 663.425C160.283 663.425 159.971 663.544 159.75 663.783C159.53 664.016 159.42 664.354 159.42 664.794V665.563H160.978V666.528H159.42V672.862H158.172ZM162.03 669.145C162.03 668.43 162.17 667.787 162.448 667.216C162.732 666.645 163.123 666.204 163.622 665.894C164.126 665.584 164.699 665.429 165.342 665.429C166.336 665.429 167.139 665.773 167.751 666.461C168.367 667.149 168.675 668.064 168.675 669.206V669.294C168.675 670.004 168.538 670.643 168.263 671.21C167.993 671.772 167.604 672.21 167.096 672.525C166.593 672.84 166.012 672.997 165.356 672.997C164.367 672.997 163.564 672.653 162.948 671.965C162.336 671.277 162.03 670.366 162.03 669.233V669.145ZM163.285 669.294C163.285 670.103 163.472 670.753 163.845 671.243C164.223 671.734 164.726 671.979 165.356 671.979C165.99 671.979 166.494 671.731 166.867 671.237C167.24 670.737 167.427 670.04 167.427 669.145C167.427 668.345 167.236 667.697 166.853 667.203C166.476 666.703 165.972 666.454 165.342 666.454C164.726 666.454 164.229 666.699 163.852 667.189C163.474 667.679 163.285 668.381 163.285 669.294ZM173.768 666.683C173.579 666.652 173.374 666.636 173.154 666.636C172.335 666.636 171.78 666.985 171.488 667.682V672.862H170.24V665.563H171.454L171.474 666.407C171.884 665.755 172.464 665.429 173.215 665.429C173.458 665.429 173.642 665.46 173.768 665.523V666.683ZM176.095 665.563L176.129 666.373C176.664 665.743 177.386 665.429 178.294 665.429C179.315 665.429 180.01 665.82 180.379 666.602C180.621 666.251 180.936 665.968 181.323 665.752C181.714 665.536 182.175 665.429 182.706 665.429C184.307 665.429 185.121 666.276 185.148 667.972V672.862H183.9V668.046C183.9 667.524 183.781 667.135 183.542 666.879C183.304 666.618 182.904 666.488 182.342 666.488C181.878 666.488 181.494 666.627 181.188 666.906C180.882 667.18 180.705 667.551 180.655 668.019V672.862H179.4V668.08C179.4 667.018 178.881 666.488 177.842 666.488C177.024 666.488 176.464 666.836 176.163 667.533V672.862H174.915V665.563H176.095ZM189.634 669.199H186.342V668.181H189.634V669.199ZM193.782 671.979C194.228 671.979 194.617 671.844 194.949 671.574C195.282 671.304 195.467 670.967 195.503 670.562H196.683C196.661 670.98 196.517 671.378 196.251 671.756C195.986 672.134 195.631 672.435 195.185 672.66C194.745 672.885 194.277 672.997 193.782 672.997C192.788 672.997 191.997 672.667 191.408 672.006C190.823 671.34 190.531 670.432 190.531 669.28V669.071C190.531 668.361 190.661 667.729 190.922 667.176C191.183 666.623 191.556 666.193 192.042 665.887C192.532 665.581 193.11 665.429 193.776 665.429C194.594 665.429 195.273 665.674 195.813 666.164C196.357 666.654 196.647 667.29 196.683 668.073H195.503C195.467 667.601 195.287 667.214 194.963 666.913C194.644 666.607 194.248 666.454 193.776 666.454C193.142 666.454 192.649 666.683 192.298 667.142C191.952 667.596 191.779 668.255 191.779 669.118V669.355C191.779 670.195 191.952 670.843 192.298 671.297C192.645 671.752 193.139 671.979 193.782 671.979ZM197.756 669.145C197.756 668.43 197.895 667.787 198.174 667.216C198.457 666.645 198.848 666.204 199.348 665.894C199.851 665.584 200.425 665.429 201.068 665.429C202.062 665.429 202.864 665.773 203.476 666.461C204.092 667.149 204.4 668.064 204.4 669.206V669.294C204.4 670.004 204.263 670.643 203.989 671.21C203.719 671.772 203.33 672.21 202.822 672.525C202.318 672.84 201.738 672.997 201.081 672.997C200.092 672.997 199.289 672.653 198.673 671.965C198.061 671.277 197.756 670.366 197.756 669.233V669.145ZM199.01 669.294C199.01 670.103 199.197 670.753 199.57 671.243C199.948 671.734 200.452 671.979 201.081 671.979C201.715 671.979 202.219 671.731 202.592 671.237C202.966 670.737 203.152 670.04 203.152 669.145C203.152 668.345 202.961 667.697 202.579 667.203C202.201 666.703 201.697 666.454 201.068 666.454C200.452 666.454 199.955 666.699 199.577 667.189C199.199 667.679 199.01 668.381 199.01 669.294ZM209.493 666.683C209.304 666.652 209.1 666.636 208.879 666.636C208.061 666.636 207.505 666.985 207.213 667.682V672.862H205.965V665.563H207.179L207.2 666.407C207.609 665.755 208.189 665.429 208.94 665.429C209.183 665.429 209.367 665.46 209.493 665.523V666.683ZM213.541 672.997C212.551 672.997 211.746 672.673 211.126 672.026C210.505 671.374 210.195 670.504 210.195 669.415V669.186C210.195 668.462 210.332 667.817 210.606 667.25C210.885 666.679 211.272 666.234 211.766 665.914C212.266 665.59 212.805 665.429 213.385 665.429C214.334 665.429 215.072 665.741 215.598 666.366C216.124 666.991 216.387 667.886 216.387 669.051V669.57H211.443C211.461 670.29 211.67 670.872 212.07 671.318C212.475 671.758 212.987 671.979 213.608 671.979C214.049 671.979 214.422 671.889 214.728 671.709C215.034 671.529 215.301 671.291 215.531 670.994L216.293 671.587C215.681 672.527 214.764 672.997 213.541 672.997ZM213.385 666.454C212.882 666.454 212.459 666.638 212.117 667.007C211.775 667.371 211.564 667.884 211.483 668.545H215.139V668.451C215.103 667.817 214.932 667.326 214.627 666.98C214.321 666.629 213.907 666.454 213.385 666.454Z" fill="black"/>
  <path d="M46.3132 43.597C71.3391 43.597 91.6265 34.0613 91.6265 22.2985C91.6265 10.5357 71.3391 1 46.3132 1C21.2874 1 1 10.5357 1 22.2985C1 34.0613 21.2874 43.597 46.3132 43.597Z" fill="white" stroke="#231F20" stroke-width="1.7269"/>
  <path d="M18.2639 26.1405C17.7782 26.7117 17.0654 26.9972 16.1255 26.9972C15.3475 26.9972 14.7539 26.7724 14.3446 26.3226C13.9399 25.8684 13.7353 25.1984 13.7308 24.3124V19.5634H14.9787V24.2787C14.9787 25.385 15.4284 25.9381 16.3279 25.9381C17.2813 25.9381 17.9154 25.5829 18.2302 24.8723V19.5634H19.4781V26.8623H18.2909L18.2639 26.1405ZM23.0736 17.7961V19.5634H24.4362V20.5281H23.0736V25.0545C23.0736 25.3468 23.1343 25.5671 23.2557 25.7155C23.3772 25.8594 23.584 25.9314 23.8763 25.9314C24.0202 25.9314 24.2181 25.9044 24.47 25.8504V26.8623C24.1417 26.9522 23.8224 26.9972 23.5121 26.9972C22.9544 26.9972 22.5339 26.8286 22.2506 26.4913C21.9673 26.154 21.8256 25.6751 21.8256 25.0545V20.5281H20.4967V19.5634H21.8256V17.7961H23.0736ZM27.2559 26.8623H26.008V19.5634H27.2559V26.8623ZM25.9068 17.6274C25.9068 17.425 25.9675 17.2542 26.0889 17.1147C26.2149 16.9753 26.3992 16.9056 26.6421 16.9056C26.8849 16.9056 27.0693 16.9753 27.1952 17.1147C27.3211 17.2542 27.3841 17.425 27.3841 17.6274C27.3841 17.8298 27.3211 17.9984 27.1952 18.1333C27.0693 18.2683 26.8849 18.3357 26.6421 18.3357C26.3992 18.3357 26.2149 18.2683 26.0889 18.1333C25.9675 17.9984 25.9068 17.8298 25.9068 17.6274ZM30.6153 26.8623H29.3673V16.5009H30.6153V26.8623ZM35.2159 23.1994H31.924V22.1808H35.2159V23.1994ZM38.13 17.7961V19.5634H39.4927V20.5281H38.13V25.0545C38.13 25.3468 38.1907 25.5671 38.3122 25.7155C38.4336 25.8594 38.6405 25.9314 38.9328 25.9314C39.0767 25.9314 39.2746 25.9044 39.5264 25.8504V26.8623C39.1981 26.9522 38.8788 26.9972 38.5685 26.9972C38.0109 26.9972 37.5904 26.8286 37.3071 26.4913C37.0237 26.154 36.8821 25.6751 36.8821 25.0545V20.5281H35.5532V19.5634H36.8821V17.7961H38.13ZM43.9853 26.9972C42.996 26.9972 42.191 26.6734 41.5704 26.0258C40.9497 25.3737 40.6394 24.5036 40.6394 23.4152V23.1859C40.6394 22.4618 40.7766 21.8165 41.0509 21.2499C41.3298 20.6787 41.7165 20.2335 42.2112 19.9142C42.7104 19.5904 43.25 19.4285 43.8302 19.4285C44.7791 19.4285 45.5166 19.7411 46.0428 20.3662C46.5689 20.9913 46.832 21.8862 46.832 23.051V23.5704H41.8874C41.9054 24.2899 42.1145 24.8723 42.5148 25.3175C42.9195 25.7583 43.4322 25.9786 44.0528 25.9786C44.4935 25.9786 44.8668 25.8887 45.1726 25.7088C45.4784 25.5289 45.746 25.2906 45.9753 24.9937L46.7376 25.5874C46.126 26.5273 45.2085 26.9972 43.9853 26.9972ZM43.8302 20.4539C43.3265 20.4539 42.9038 20.6383 42.562 21.007C42.2202 21.3713 42.0088 21.884 41.9279 22.545H45.5841V22.4506C45.5481 21.8165 45.3772 21.3263 45.0714 20.98C44.7656 20.6293 44.3518 20.4539 43.8302 20.4539ZM52.5322 24.9263C52.5322 24.589 52.404 24.3282 52.1476 24.1438C51.8958 23.9549 51.4528 23.793 50.8187 23.6581C50.1891 23.5232 49.6877 23.3613 49.3144 23.1724C48.9457 22.9835 48.6714 22.7587 48.4915 22.4978C48.3161 22.237 48.2284 21.9267 48.2284 21.5669C48.2284 20.9688 48.4802 20.4629 48.9839 20.0491C49.4921 19.6354 50.1397 19.4285 50.9267 19.4285C51.7541 19.4285 52.4242 19.6421 52.9369 20.0694C53.4541 20.4966 53.7127 21.043 53.7127 21.7086H52.4579C52.4579 21.3668 52.3118 21.0722 52.0195 20.8249C51.7317 20.5775 51.3674 20.4539 50.9267 20.4539C50.4725 20.4539 50.1172 20.5528 49.8608 20.7507C49.6045 20.9486 49.4763 21.2071 49.4763 21.5264C49.4763 21.8277 49.5955 22.0549 49.8339 22.2078C50.0722 22.3607 50.5017 22.5068 51.1223 22.6462C51.7474 22.7856 52.2533 22.952 52.6401 23.1454C53.0268 23.3388 53.3124 23.5726 53.4968 23.847C53.6857 24.1168 53.7801 24.4473 53.7801 24.8386C53.7801 25.4907 53.5193 26.0146 52.9976 26.4103C52.4759 26.8016 51.7991 26.9972 50.9671 26.9972C50.3825 26.9972 49.8653 26.8938 49.4156 26.6869C48.9659 26.48 48.6129 26.1922 48.3566 25.8235C48.1047 25.4502 47.9788 25.0477 47.9788 24.616H49.2267C49.2492 25.0342 49.4156 25.367 49.7259 25.6143C50.0407 25.8572 50.4545 25.9786 50.9671 25.9786C51.4393 25.9786 51.8171 25.8842 52.1004 25.6953C52.3882 25.5019 52.5322 25.2456 52.5322 24.9263ZM57.099 17.7961V19.5634H58.4616V20.5281H57.099V25.0545C57.099 25.3468 57.1597 25.5671 57.2811 25.7155C57.4026 25.8594 57.6094 25.9314 57.9017 25.9314C58.0457 25.9314 58.2435 25.9044 58.4954 25.8504V26.8623C58.1671 26.9522 57.8478 26.9972 57.5375 26.9972C56.9798 26.9972 56.5593 26.8286 56.276 26.4913C55.9927 26.154 55.851 25.6751 55.851 25.0545V20.5281H54.5221V19.5634H55.851V17.7961H57.099ZM61.2813 26.8623H60.0334V19.5634H61.2813V26.8623ZM59.9322 17.6274C59.9322 17.425 59.9929 17.2542 60.1143 17.1147C60.2403 16.9753 60.4246 16.9056 60.6675 16.9056C60.9103 16.9056 61.0947 16.9753 61.2206 17.1147C61.3466 17.2542 61.4095 17.425 61.4095 17.6274C61.4095 17.8298 61.3466 17.9984 61.2206 18.1333C61.0947 18.2683 60.9103 18.3357 60.6675 18.3357C60.4246 18.3357 60.2403 18.2683 60.1143 18.1333C59.9929 17.9984 59.9322 17.8298 59.9322 17.6274ZM64.4653 19.5634L64.5058 20.4809C65.0634 19.7793 65.792 19.4285 66.6914 19.4285C68.2339 19.4285 69.0119 20.2987 69.0254 22.0391V26.8623H67.7775V22.0324C67.773 21.5062 67.6516 21.1172 67.4132 20.8654C67.1794 20.6135 66.8128 20.4876 66.3137 20.4876C65.9089 20.4876 65.5536 20.5955 65.2478 20.8114C64.942 21.0273 64.7037 21.3106 64.5328 21.6614V26.8623H63.2848V19.5634H64.4653ZM70.6107 23.1522C70.6107 22.0144 70.8738 21.1105 71.3999 20.4404C71.9261 19.7658 72.6232 19.4285 73.4911 19.4285C74.3815 19.4285 75.0763 19.7433 75.5755 20.3729L75.6362 19.5634H76.7763V26.6869C76.7763 27.6313 76.4952 28.3756 75.9331 28.9197C75.3754 29.4639 74.6244 29.736 73.68 29.736C73.1538 29.736 72.6389 29.6236 72.1352 29.3987C71.6315 29.1738 71.247 28.8658 70.9817 28.4745L71.6293 27.7258C72.1644 28.3868 72.8188 28.7174 73.5923 28.7174C74.1994 28.7174 74.6716 28.5465 75.0089 28.2047C75.3507 27.8629 75.5216 27.3817 75.5216 26.7611V26.1338C75.0224 26.7094 74.3411 26.9972 73.4776 26.9972C72.6232 26.9972 71.9306 26.6532 71.3999 25.9651C70.8738 25.2771 70.6107 24.3394 70.6107 23.1522ZM71.8654 23.2938C71.8654 24.1168 72.034 24.7644 72.3713 25.2366C72.7086 25.7043 73.1808 25.9381 73.7879 25.9381C74.5749 25.9381 75.1528 25.5806 75.5216 24.8656V21.5332C75.1393 20.8361 74.5659 20.4876 73.8014 20.4876C73.1943 20.4876 72.7198 20.7237 72.3781 21.1959C72.0363 21.6681 71.8654 22.3674 71.8654 23.2938Z" fill="black"/>
  <path d="M180.112 904.746C199.292 904.746 214.839 895.211 214.839 883.448C214.839 871.685 199.292 862.149 180.112 862.149C160.933 862.149 145.385 871.685 145.385 883.448C145.385 895.211 160.933 904.746 180.112 904.746Z" fill="white" stroke="#231F20" stroke-width="1.7269"/>
  <path d="M164.264 888.141C163.778 888.712 163.065 888.997 162.125 888.997C161.347 888.997 160.754 888.772 160.345 888.323C159.94 887.868 159.735 887.198 159.731 886.312V881.563H160.979V886.279C160.979 887.385 161.428 887.938 162.328 887.938C163.281 887.938 163.915 887.583 164.23 886.872V881.563H165.478V888.862H164.291L164.264 888.141ZM168.736 888.862H167.488V881.563H168.736V888.862ZM167.387 879.627C167.387 879.425 167.448 879.254 167.569 879.115C167.695 878.975 167.88 878.906 168.122 878.906C168.365 878.906 168.55 878.975 168.676 879.115C168.802 879.254 168.864 879.425 168.864 879.627C168.864 879.83 168.802 879.998 168.676 880.133C168.55 880.268 168.365 880.336 168.122 880.336C167.88 880.336 167.695 880.268 167.569 880.133C167.448 879.998 167.387 879.83 167.387 879.627ZM173.337 885.199H170.045V884.181H173.337V885.199ZM177.485 887.979C177.931 887.979 178.32 887.844 178.653 887.574C178.985 887.304 179.17 886.967 179.206 886.562H180.386C180.364 886.98 180.22 887.378 179.954 887.756C179.689 888.134 179.334 888.435 178.889 888.66C178.448 888.885 177.98 888.997 177.485 888.997C176.492 888.997 175.7 888.667 175.111 888.006C174.526 887.34 174.234 886.432 174.234 885.28V885.071C174.234 884.361 174.364 883.729 174.625 883.176C174.886 882.623 175.259 882.193 175.745 881.887C176.235 881.581 176.813 881.429 177.479 881.429C178.297 881.429 178.976 881.674 179.516 882.164C180.06 882.654 180.35 883.29 180.386 884.073H179.206C179.17 883.601 178.99 883.214 178.666 882.913C178.347 882.607 177.951 882.454 177.479 882.454C176.845 882.454 176.352 882.683 176.001 883.142C175.655 883.596 175.482 884.255 175.482 885.118V885.355C175.482 886.195 175.655 886.843 176.001 887.297C176.348 887.752 176.842 887.979 177.485 887.979ZM181.459 885.145C181.459 884.43 181.598 883.787 181.877 883.216C182.16 882.645 182.552 882.204 183.051 881.894C183.554 881.584 184.128 881.429 184.771 881.429C185.765 881.429 186.567 881.773 187.179 882.461C187.795 883.149 188.103 884.064 188.103 885.206V885.294C188.103 886.004 187.966 886.643 187.692 887.21C187.422 887.772 187.033 888.21 186.525 888.525C186.021 888.84 185.441 888.997 184.784 888.997C183.795 888.997 182.992 888.653 182.376 887.965C181.765 887.277 181.459 886.366 181.459 885.233V885.145ZM182.713 885.294C182.713 886.103 182.9 886.753 183.273 887.243C183.651 887.734 184.155 887.979 184.784 887.979C185.418 887.979 185.922 887.731 186.295 887.237C186.669 886.737 186.855 886.04 186.855 885.145C186.855 884.345 186.664 883.697 186.282 883.203C185.904 882.703 185.4 882.454 184.771 882.454C184.155 882.454 183.658 882.699 183.28 883.189C182.902 883.679 182.713 884.381 182.713 885.294ZM193.196 882.683C193.007 882.652 192.803 882.636 192.582 882.636C191.764 882.636 191.209 882.985 190.916 883.682V888.862H189.668V881.563H190.882L190.903 882.407C191.312 881.755 191.892 881.429 192.643 881.429C192.886 881.429 193.07 881.46 193.196 881.523V882.683ZM197.244 888.997C196.254 888.997 195.449 888.673 194.829 888.026C194.208 887.374 193.898 886.504 193.898 885.415V885.186C193.898 884.462 194.035 883.817 194.309 883.25C194.588 882.679 194.975 882.234 195.47 881.914C195.969 881.59 196.508 881.429 197.089 881.429C198.037 881.429 198.775 881.741 199.301 882.366C199.827 882.991 200.09 883.886 200.09 885.051V885.57H195.146C195.164 886.29 195.373 886.872 195.773 887.318C196.178 887.758 196.691 887.979 197.311 887.979C197.752 887.979 198.125 887.889 198.431 887.709C198.737 887.529 199.004 887.291 199.234 886.994L199.996 887.587C199.384 888.527 198.467 888.997 197.244 888.997ZM197.089 882.454C196.585 882.454 196.162 882.638 195.82 883.007C195.479 883.371 195.267 883.884 195.186 884.545H198.842V884.451C198.806 883.817 198.636 883.326 198.33 882.98C198.024 882.629 197.61 882.454 197.089 882.454Z" fill="black"/>
  <path d="M211.035 1H149.19V43.597H211.035V1Z" fill="white" stroke="#231F20" stroke-width="1.7269"/>
  <path d="M162.454 23.1522C162.454 22.0324 162.72 21.1329 163.25 20.4539C163.781 19.7703 164.476 19.4285 165.335 19.4285C166.189 19.4285 166.866 19.7208 167.365 20.3055V16.5009H168.613V26.8623H167.466L167.406 26.0798C166.906 26.6914 166.212 26.9972 165.321 26.9972C164.476 26.9972 163.785 26.6509 163.25 25.9584C162.72 25.2658 162.454 24.3619 162.454 23.2466V23.1522ZM163.702 23.2938C163.702 24.1213 163.873 24.7689 164.215 25.2366C164.557 25.7043 165.029 25.9381 165.631 25.9381C166.423 25.9381 167.001 25.5829 167.365 24.8723V21.5197C166.992 20.8316 166.418 20.4876 165.645 20.4876C165.033 20.4876 164.557 20.7237 164.215 21.1959C163.873 21.6681 163.702 22.3674 163.702 23.2938ZM173.585 26.9972C172.595 26.9972 171.79 26.6734 171.17 26.0258C170.549 25.3737 170.239 24.5036 170.239 23.4152V23.1859C170.239 22.4618 170.376 21.8165 170.65 21.2499C170.929 20.6787 171.316 20.2335 171.811 19.9142C172.31 19.5904 172.849 19.4285 173.429 19.4285C174.378 19.4285 175.116 19.7411 175.642 20.3662C176.168 20.9913 176.431 21.8862 176.431 23.051V23.5704H171.487C171.505 24.2899 171.714 24.8723 172.114 25.3175C172.519 25.7583 173.031 25.9786 173.652 25.9786C174.093 25.9786 174.466 25.8887 174.772 25.7088C175.078 25.5289 175.345 25.2906 175.575 24.9937L176.337 25.5874C175.725 26.5273 174.808 26.9972 173.585 26.9972ZM173.429 20.4539C172.926 20.4539 172.503 20.6383 172.161 21.007C171.82 21.3713 171.608 21.884 171.527 22.545H175.183V22.4506C175.147 21.8165 174.977 21.3263 174.671 20.98C174.365 20.6293 173.951 20.4539 173.429 20.4539ZM179.055 19.5634L179.089 20.3729C179.624 19.7433 180.346 19.4285 181.255 19.4285C182.275 19.4285 182.97 19.8198 183.339 20.6023C183.582 20.2515 183.897 19.9682 184.283 19.7523C184.675 19.5365 185.136 19.4285 185.666 19.4285C187.267 19.4285 188.081 20.2762 188.108 21.9717V26.8623H186.86V22.0459C186.86 21.5242 186.741 21.1352 186.503 20.8789C186.264 20.618 185.864 20.4876 185.302 20.4876C184.839 20.4876 184.454 20.627 184.148 20.9058C183.843 21.1802 183.665 21.5512 183.616 22.0189V26.8623H182.361V22.0796C182.361 21.0183 181.841 20.4876 180.803 20.4876C179.984 20.4876 179.424 20.8361 179.123 21.5332V26.8623H177.875V19.5634H179.055ZM189.666 23.1454C189.666 22.4304 189.806 21.7873 190.085 21.2161C190.368 20.645 190.759 20.2043 191.258 19.894C191.762 19.5837 192.335 19.4285 192.979 19.4285C193.972 19.4285 194.775 19.7726 195.387 20.4606C196.003 21.1487 196.311 22.0638 196.311 23.2061V23.2938C196.311 24.0044 196.174 24.643 195.899 25.2096C195.63 25.7717 195.241 26.2102 194.732 26.525C194.229 26.8398 193.649 26.9972 192.992 26.9972C192.003 26.9972 191.2 26.6532 190.584 25.9651C189.972 25.2771 189.666 24.3664 189.666 23.2331V23.1454ZM190.921 23.2938C190.921 24.1033 191.108 24.7531 191.481 25.2433C191.859 25.7335 192.362 25.9786 192.992 25.9786C193.626 25.9786 194.13 25.7313 194.503 25.2366C194.876 24.7374 195.063 24.0403 195.063 23.1454C195.063 22.3449 194.872 21.6973 194.49 21.2026C194.112 20.7035 193.608 20.4539 192.979 20.4539C192.362 20.4539 191.866 20.699 191.488 21.1892C191.11 21.6793 190.921 22.3809 190.921 23.2938Z" fill="black"/>
</svg>
