<svg width="576" height="842" viewBox="0 0 576 842" fill="none" xmlns="http://www.w3.org/2000/svg">
  <path d="M212.56 308.441L189.58 326.185C166.6 343.929 120.641 379.417 97.6608 414.269C74.681 449.121 74.681 483.336 74.681 500.444V517.551" stroke="#333333" stroke-width="2.20189"/>
  <path d="M238.574 312.244L237.335 329.354C236.097 346.464 233.62 380.685 232.382 419.122C231.143 457.56 231.143 500.215 231.143 542.871C231.143 585.526 231.143 628.181 251.544 667.379C271.944 706.578 312.746 742.32 333.146 760.191L353.547 778.062" stroke="#333333" stroke-width="2.20189"/>
  <path d="M265.788 309.132L285.951 326.761C306.114 344.39 346.44 379.647 375.818 414.514C405.196 449.38 423.626 483.855 432.841 501.093L442.056 518.33" stroke="#333333" stroke-width="2.20189"/>
  <path d="M455.174 568.19V585.298C455.174 602.405 455.174 636.621 444.59 671.103C434.006 705.585 412.838 740.335 402.253 757.71L391.669 775.084" stroke="#333333" stroke-width="2.20189"/>
  <path d="M350.151 56.3282L331.86 73.4359C313.569 90.5436 276.987 124.759 258.696 158.974C240.405 193.19 240.405 227.405 240.405 244.513V261.62" stroke="#333333" stroke-width="2.20189"/>
  <path d="M406.18 56.3282L425.747 73.4359C445.314 90.5436 484.449 124.759 504.016 163.194C523.583 201.629 523.583 244.285 523.583 286.94C523.583 329.595 523.583 372.25 514.368 410.815C505.153 449.38 486.723 483.855 477.508 501.093L468.293 518.33" stroke="#333333" stroke-width="2.20189"/>
  <path d="M74.681 568.19C104.422 568.19 128.531 556.854 128.531 542.871C128.531 528.887 104.422 517.551 74.681 517.551C44.9405 517.551 20.831 528.887 20.831 542.871C20.831 556.854 44.9405 568.19 74.681 568.19Z" fill="white" stroke="#231F20" stroke-width="2.20189"/>
  <path d="M42.3125 547.164C41.75 547.826 40.9245 548.156 39.8359 548.156C38.9349 548.156 38.2474 547.896 37.7734 547.375C37.3047 546.849 37.0677 546.073 37.0625 545.047V539.547H38.5078V545.008C38.5078 546.289 39.0286 546.93 40.0703 546.93C41.1745 546.93 41.9089 546.518 42.2734 545.695V539.547H43.7188V548H42.3438L42.3125 547.164ZM47.8828 537.5V539.547H49.4609V540.664H47.8828V545.906C47.8828 546.245 47.9531 546.5 48.0938 546.672C48.2344 546.839 48.474 546.922 48.8125 546.922C48.9792 546.922 49.2083 546.891 49.5 546.828V548C49.1198 548.104 48.75 548.156 48.3906 548.156C47.7448 548.156 47.2578 547.961 46.9297 547.57C46.6016 547.18 46.4375 546.625 46.4375 545.906V540.664H44.8984V539.547H46.4375V537.5H47.8828ZM52.7266 548H51.2812V539.547H52.7266V548ZM51.1641 537.305C51.1641 537.07 51.2344 536.872 51.375 536.711C51.5208 536.549 51.7344 536.469 52.0156 536.469C52.2969 536.469 52.5104 536.549 52.6562 536.711C52.8021 536.872 52.875 537.07 52.875 537.305C52.875 537.539 52.8021 537.734 52.6562 537.891C52.5104 538.047 52.2969 538.125 52.0156 538.125C51.7344 538.125 51.5208 538.047 51.375 537.891C51.2344 537.734 51.1641 537.539 51.1641 537.305ZM56.6172 548H55.1719V536H56.6172V548ZM61.9453 543.758H58.1328V542.578H61.9453V543.758ZM65.3203 537.5V539.547H66.8984V540.664H65.3203V545.906C65.3203 546.245 65.3906 546.5 65.5312 546.672C65.6719 546.839 65.9115 546.922 66.25 546.922C66.4167 546.922 66.6458 546.891 66.9375 546.828V548C66.5573 548.104 66.1875 548.156 65.8281 548.156C65.1823 548.156 64.6953 547.961 64.3672 547.57C64.0391 547.18 63.875 546.625 63.875 545.906V540.664H62.3359V539.547H63.875V537.5H65.3203ZM72.1016 548.156C70.9557 548.156 70.0234 547.781 69.3047 547.031C68.5859 546.276 68.2266 545.268 68.2266 544.008V543.742C68.2266 542.904 68.3854 542.156 68.7031 541.5C69.026 540.839 69.474 540.323 70.0469 539.953C70.625 539.578 71.25 539.391 71.9219 539.391C73.0208 539.391 73.875 539.753 74.4844 540.477C75.0938 541.201 75.3984 542.237 75.3984 543.586V544.188H69.6719C69.6927 545.021 69.9349 545.695 70.3984 546.211C70.8672 546.721 71.4609 546.977 72.1797 546.977C72.6901 546.977 73.1224 546.872 73.4766 546.664C73.8307 546.456 74.1406 546.18 74.4062 545.836L75.2891 546.523C74.5807 547.612 73.5182 548.156 72.1016 548.156ZM71.9219 540.578C71.3385 540.578 70.849 540.792 70.4531 541.219C70.0573 541.641 69.8125 542.234 69.7188 543H73.9531V542.891C73.9115 542.156 73.7135 541.589 73.3594 541.188C73.0052 540.781 72.526 540.578 71.9219 540.578ZM82 545.758C82 545.367 81.8516 545.065 81.5547 544.852C81.263 544.633 80.75 544.445 80.0156 544.289C79.2865 544.133 78.7057 543.945 78.2734 543.727C77.8464 543.508 77.5286 543.247 77.3203 542.945C77.1172 542.643 77.0156 542.284 77.0156 541.867C77.0156 541.174 77.3073 540.589 77.8906 540.109C78.4792 539.63 79.2292 539.391 80.1406 539.391C81.099 539.391 81.875 539.638 82.4688 540.133C83.0677 540.628 83.3672 541.26 83.3672 542.031H81.9141C81.9141 541.635 81.7448 541.294 81.4062 541.008C81.0729 540.721 80.651 540.578 80.1406 540.578C79.6146 540.578 79.2031 540.693 78.9062 540.922C78.6094 541.151 78.4609 541.451 78.4609 541.82C78.4609 542.169 78.599 542.432 78.875 542.609C79.151 542.786 79.6484 542.956 80.3672 543.117C81.0911 543.279 81.6771 543.471 82.125 543.695C82.5729 543.919 82.9036 544.19 83.1172 544.508C83.3359 544.82 83.4453 545.203 83.4453 545.656C83.4453 546.411 83.1432 547.018 82.5391 547.477C81.9349 547.93 81.151 548.156 80.1875 548.156C79.5104 548.156 78.9115 548.036 78.3906 547.797C77.8698 547.557 77.4609 547.224 77.1641 546.797C76.8724 546.365 76.7266 545.898 76.7266 545.398H78.1719C78.1979 545.883 78.3906 546.268 78.75 546.555C79.1146 546.836 79.5938 546.977 80.1875 546.977C80.7344 546.977 81.1719 546.867 81.5 546.648C81.8333 546.424 82 546.128 82 545.758ZM87.2891 537.5V539.547H88.8672V540.664H87.2891V545.906C87.2891 546.245 87.3594 546.5 87.5 546.672C87.6406 546.839 87.8802 546.922 88.2188 546.922C88.3854 546.922 88.6146 546.891 88.9062 546.828V548C88.526 548.104 88.1562 548.156 87.7969 548.156C87.151 548.156 86.6641 547.961 86.3359 547.57C86.0078 547.18 85.8438 546.625 85.8438 545.906V540.664H84.3047V539.547H85.8438V537.5H87.2891ZM92.1328 548H90.6875V539.547H92.1328V548ZM90.5703 537.305C90.5703 537.07 90.6406 536.872 90.7812 536.711C90.9271 536.549 91.1406 536.469 91.4219 536.469C91.7031 536.469 91.9167 536.549 92.0625 536.711C92.2083 536.872 92.2812 537.07 92.2812 537.305C92.2812 537.539 92.2083 537.734 92.0625 537.891C91.9167 538.047 91.7031 538.125 91.4219 538.125C91.1406 538.125 90.9271 538.047 90.7812 537.891C90.6406 537.734 90.5703 537.539 90.5703 537.305ZM95.8203 539.547L95.8672 540.609C96.513 539.797 97.3568 539.391 98.3984 539.391C100.185 539.391 101.086 540.398 101.102 542.414V548H99.6562V542.406C99.651 541.797 99.5104 541.346 99.2344 541.055C98.9635 540.763 98.5391 540.617 97.9609 540.617C97.4922 540.617 97.0807 540.742 96.7266 540.992C96.3724 541.242 96.0964 541.57 95.8984 541.977V548H94.4531V539.547H95.8203ZM102.938 543.703C102.938 542.385 103.242 541.339 103.852 540.562C104.461 539.781 105.268 539.391 106.273 539.391C107.305 539.391 108.109 539.755 108.688 540.484L108.758 539.547H110.078V547.797C110.078 548.891 109.753 549.753 109.102 550.383C108.456 551.013 107.586 551.328 106.492 551.328C105.883 551.328 105.286 551.198 104.703 550.938C104.12 550.677 103.674 550.32 103.367 549.867L104.117 549C104.737 549.766 105.495 550.148 106.391 550.148C107.094 550.148 107.641 549.951 108.031 549.555C108.427 549.159 108.625 548.602 108.625 547.883V547.156C108.047 547.823 107.258 548.156 106.258 548.156C105.268 548.156 104.466 547.758 103.852 546.961C103.242 546.164 102.938 545.078 102.938 543.703ZM104.391 543.867C104.391 544.82 104.586 545.57 104.977 546.117C105.367 546.659 105.914 546.93 106.617 546.93C107.529 546.93 108.198 546.516 108.625 545.688V541.828C108.182 541.021 107.518 540.617 106.633 540.617C105.93 540.617 105.38 540.891 104.984 541.438C104.589 541.984 104.391 542.794 104.391 543.867Z" fill="black"/>
  <path d="M240.405 312.259C269.526 312.259 293.133 300.923 293.133 286.94C293.133 272.956 269.526 261.62 240.405 261.62C211.284 261.62 187.677 272.956 187.677 286.94C187.677 300.923 211.284 312.259 240.405 312.259Z" fill="white" stroke="#231F20" stroke-width="2.20189"/>
  <path d="M210.312 291.164C209.75 291.826 208.924 292.156 207.836 292.156C206.935 292.156 206.247 291.896 205.773 291.375C205.305 290.849 205.068 290.073 205.062 289.047V283.547H206.508V289.008C206.508 290.289 207.029 290.93 208.07 290.93C209.174 290.93 209.909 290.518 210.273 289.695V283.547H211.719V292H210.344L210.312 291.164ZM215.492 292H214.047V283.547H215.492V292ZM213.93 281.305C213.93 281.07 214 280.872 214.141 280.711C214.286 280.549 214.5 280.469 214.781 280.469C215.062 280.469 215.276 280.549 215.422 280.711C215.568 280.872 215.641 281.07 215.641 281.305C215.641 281.539 215.568 281.734 215.422 281.891C215.276 282.047 215.062 282.125 214.781 282.125C214.5 282.125 214.286 282.047 214.141 281.891C214 281.734 213.93 281.539 213.93 281.305ZM220.82 287.758H217.008V286.578H220.82V287.758ZM227.453 292C227.37 291.833 227.302 291.536 227.25 291.109C226.578 291.807 225.776 292.156 224.844 292.156C224.01 292.156 223.326 291.922 222.789 291.453C222.258 290.979 221.992 290.38 221.992 289.656C221.992 288.776 222.326 288.094 222.992 287.609C223.664 287.12 224.607 286.875 225.82 286.875H227.227V286.211C227.227 285.706 227.076 285.305 226.773 285.008C226.471 284.706 226.026 284.555 225.438 284.555C224.922 284.555 224.49 284.685 224.141 284.945C223.792 285.206 223.617 285.521 223.617 285.891H222.164C222.164 285.469 222.312 285.062 222.609 284.672C222.911 284.276 223.318 283.964 223.828 283.734C224.344 283.505 224.909 283.391 225.523 283.391C226.497 283.391 227.26 283.635 227.812 284.125C228.365 284.609 228.651 285.279 228.672 286.133V290.023C228.672 290.799 228.771 291.417 228.969 291.875V292H227.453ZM225.055 290.898C225.508 290.898 225.938 290.781 226.344 290.547C226.75 290.312 227.044 290.008 227.227 289.633V287.898H226.094C224.323 287.898 223.438 288.417 223.438 289.453C223.438 289.906 223.589 290.26 223.891 290.516C224.193 290.771 224.581 290.898 225.055 290.898ZM232.305 283.547L232.352 284.609C232.997 283.797 233.841 283.391 234.883 283.391C236.669 283.391 237.57 284.398 237.586 286.414V292H236.141V286.406C236.135 285.797 235.995 285.346 235.719 285.055C235.448 284.763 235.023 284.617 234.445 284.617C233.977 284.617 233.565 284.742 233.211 284.992C232.857 285.242 232.581 285.57 232.383 285.977V292H230.938V283.547H232.305ZM239.422 287.703C239.422 286.385 239.727 285.339 240.336 284.562C240.945 283.781 241.753 283.391 242.758 283.391C243.789 283.391 244.594 283.755 245.172 284.484L245.242 283.547H246.562V291.797C246.562 292.891 246.237 293.753 245.586 294.383C244.94 295.013 244.07 295.328 242.977 295.328C242.367 295.328 241.771 295.198 241.188 294.938C240.604 294.677 240.159 294.32 239.852 293.867L240.602 293C241.221 293.766 241.979 294.148 242.875 294.148C243.578 294.148 244.125 293.951 244.516 293.555C244.911 293.159 245.109 292.602 245.109 291.883V291.156C244.531 291.823 243.742 292.156 242.742 292.156C241.753 292.156 240.951 291.758 240.336 290.961C239.727 290.164 239.422 289.078 239.422 287.703ZM240.875 287.867C240.875 288.82 241.07 289.57 241.461 290.117C241.852 290.659 242.398 290.93 243.102 290.93C244.013 290.93 244.682 290.516 245.109 289.688V285.828C244.667 285.021 244.003 284.617 243.117 284.617C242.414 284.617 241.865 284.891 241.469 285.438C241.073 285.984 240.875 286.794 240.875 287.867ZM253.969 291.164C253.406 291.826 252.581 292.156 251.492 292.156C250.591 292.156 249.904 291.896 249.43 291.375C248.961 290.849 248.724 290.073 248.719 289.047V283.547H250.164V289.008C250.164 290.289 250.685 290.93 251.727 290.93C252.831 290.93 253.565 290.518 253.93 289.695V283.547H255.375V292H254L253.969 291.164ZM259.148 292H257.703V280H259.148V292ZM266.688 292C266.604 291.833 266.536 291.536 266.484 291.109C265.812 291.807 265.01 292.156 264.078 292.156C263.245 292.156 262.56 291.922 262.023 291.453C261.492 290.979 261.227 290.38 261.227 289.656C261.227 288.776 261.56 288.094 262.227 287.609C262.898 287.12 263.841 286.875 265.055 286.875H266.461V286.211C266.461 285.706 266.31 285.305 266.008 285.008C265.706 284.706 265.26 284.555 264.672 284.555C264.156 284.555 263.724 284.685 263.375 284.945C263.026 285.206 262.852 285.521 262.852 285.891H261.398C261.398 285.469 261.547 285.062 261.844 284.672C262.146 284.276 262.552 283.964 263.062 283.734C263.578 283.505 264.143 283.391 264.758 283.391C265.732 283.391 266.495 283.635 267.047 284.125C267.599 284.609 267.885 285.279 267.906 286.133V290.023C267.906 290.799 268.005 291.417 268.203 291.875V292H266.688ZM264.289 290.898C264.742 290.898 265.172 290.781 265.578 290.547C265.984 290.312 266.279 290.008 266.461 289.633V287.898H265.328C263.557 287.898 262.672 288.417 262.672 289.453C262.672 289.906 262.823 290.26 263.125 290.516C263.427 290.771 263.815 290.898 264.289 290.898ZM274.258 284.844C274.039 284.807 273.802 284.789 273.547 284.789C272.599 284.789 271.956 285.193 271.617 286V292H270.172V283.547H271.578L271.602 284.523C272.076 283.768 272.747 283.391 273.617 283.391C273.898 283.391 274.112 283.427 274.258 283.5V284.844Z" fill="black"/>
  <path d="M455.174 568.19C484.608 568.19 508.469 556.854 508.469 542.871C508.469 528.887 484.608 517.551 455.174 517.551C425.741 517.551 401.88 528.887 401.88 542.871C401.88 556.854 425.741 568.19 455.174 568.19Z" fill="white" stroke="#231F20" stroke-width="2.20189"/>
  <path d="M424.312 547.164C423.75 547.826 422.924 548.156 421.836 548.156C420.935 548.156 420.247 547.896 419.773 547.375C419.305 546.849 419.068 546.073 419.062 545.047V539.547H420.508V545.008C420.508 546.289 421.029 546.93 422.07 546.93C423.174 546.93 423.909 546.518 424.273 545.695V539.547H425.719V548H424.344L424.312 547.164ZM429.492 548H428.047V539.547H429.492V548ZM427.93 537.305C427.93 537.07 428 536.872 428.141 536.711C428.286 536.549 428.5 536.469 428.781 536.469C429.062 536.469 429.276 536.549 429.422 536.711C429.568 536.872 429.641 537.07 429.641 537.305C429.641 537.539 429.568 537.734 429.422 537.891C429.276 538.047 429.062 538.125 428.781 538.125C428.5 538.125 428.286 538.047 428.141 537.891C428 537.734 427.93 537.539 427.93 537.305ZM434.82 543.758H431.008V542.578H434.82V543.758ZM439.625 546.977C440.141 546.977 440.591 546.82 440.977 546.508C441.362 546.195 441.576 545.805 441.617 545.336H442.984C442.958 545.82 442.792 546.281 442.484 546.719C442.177 547.156 441.766 547.505 441.25 547.766C440.74 548.026 440.198 548.156 439.625 548.156C438.474 548.156 437.557 547.773 436.875 547.008C436.198 546.237 435.859 545.185 435.859 543.852V543.609C435.859 542.786 436.01 542.055 436.312 541.414C436.615 540.773 437.047 540.276 437.609 539.922C438.177 539.568 438.846 539.391 439.617 539.391C440.565 539.391 441.352 539.674 441.977 540.242C442.607 540.81 442.943 541.547 442.984 542.453H441.617C441.576 541.906 441.367 541.458 440.992 541.109C440.622 540.755 440.164 540.578 439.617 540.578C438.883 540.578 438.312 540.844 437.906 541.375C437.505 541.901 437.305 542.664 437.305 543.664V543.938C437.305 544.911 437.505 545.661 437.906 546.188C438.307 546.714 438.88 546.977 439.625 546.977ZM449.828 547.164C449.266 547.826 448.44 548.156 447.352 548.156C446.451 548.156 445.763 547.896 445.289 547.375C444.82 546.849 444.583 546.073 444.578 545.047V539.547H446.023V545.008C446.023 546.289 446.544 546.93 447.586 546.93C448.69 546.93 449.424 546.518 449.789 545.695V539.547H451.234V548H449.859L449.828 547.164ZM458.359 545.758C458.359 545.367 458.211 545.065 457.914 544.852C457.622 544.633 457.109 544.445 456.375 544.289C455.646 544.133 455.065 543.945 454.633 543.727C454.206 543.508 453.888 543.247 453.68 542.945C453.477 542.643 453.375 542.284 453.375 541.867C453.375 541.174 453.667 540.589 454.25 540.109C454.839 539.63 455.589 539.391 456.5 539.391C457.458 539.391 458.234 539.638 458.828 540.133C459.427 540.628 459.727 541.26 459.727 542.031H458.273C458.273 541.635 458.104 541.294 457.766 541.008C457.432 540.721 457.01 540.578 456.5 540.578C455.974 540.578 455.562 540.693 455.266 540.922C454.969 541.151 454.82 541.451 454.82 541.82C454.82 542.169 454.958 542.432 455.234 542.609C455.51 542.786 456.008 542.956 456.727 543.117C457.451 543.279 458.036 543.471 458.484 543.695C458.932 543.919 459.263 544.19 459.477 544.508C459.695 544.82 459.805 545.203 459.805 545.656C459.805 546.411 459.503 547.018 458.898 547.477C458.294 547.93 457.51 548.156 456.547 548.156C455.87 548.156 455.271 548.036 454.75 547.797C454.229 547.557 453.82 547.224 453.523 546.797C453.232 546.365 453.086 545.898 453.086 545.398H454.531C454.557 545.883 454.75 546.268 455.109 546.555C455.474 546.836 455.953 546.977 456.547 546.977C457.094 546.977 457.531 546.867 457.859 546.648C458.193 546.424 458.359 546.128 458.359 545.758ZM463.648 537.5V539.547H465.227V540.664H463.648V545.906C463.648 546.245 463.719 546.5 463.859 546.672C464 546.839 464.24 546.922 464.578 546.922C464.745 546.922 464.974 546.891 465.266 546.828V548C464.885 548.104 464.516 548.156 464.156 548.156C463.51 548.156 463.023 547.961 462.695 547.57C462.367 547.18 462.203 546.625 462.203 545.906V540.664H460.664V539.547H462.203V537.5H463.648ZM466.383 543.695C466.383 542.867 466.544 542.122 466.867 541.461C467.195 540.799 467.648 540.289 468.227 539.93C468.81 539.57 469.474 539.391 470.219 539.391C471.37 539.391 472.299 539.789 473.008 540.586C473.721 541.383 474.078 542.443 474.078 543.766V543.867C474.078 544.69 473.919 545.43 473.602 546.086C473.289 546.737 472.839 547.245 472.25 547.609C471.667 547.974 470.995 548.156 470.234 548.156C469.089 548.156 468.159 547.758 467.445 546.961C466.737 546.164 466.383 545.109 466.383 543.797V543.695ZM467.836 543.867C467.836 544.805 468.052 545.557 468.484 546.125C468.922 546.693 469.505 546.977 470.234 546.977C470.969 546.977 471.552 546.69 471.984 546.117C472.417 545.539 472.633 544.732 472.633 543.695C472.633 542.768 472.411 542.018 471.969 541.445C471.531 540.867 470.948 540.578 470.219 540.578C469.505 540.578 468.93 540.862 468.492 541.43C468.055 541.997 467.836 542.81 467.836 543.867ZM477.25 539.547L477.289 540.484C477.909 539.755 478.745 539.391 479.797 539.391C480.979 539.391 481.784 539.844 482.211 540.75C482.492 540.344 482.857 540.016 483.305 539.766C483.758 539.516 484.292 539.391 484.906 539.391C486.76 539.391 487.703 540.372 487.734 542.336V548H486.289V542.422C486.289 541.818 486.151 541.367 485.875 541.07C485.599 540.768 485.135 540.617 484.484 540.617C483.948 540.617 483.503 540.779 483.148 541.102C482.794 541.419 482.589 541.849 482.531 542.391V548H481.078V542.461C481.078 541.232 480.477 540.617 479.273 540.617C478.326 540.617 477.677 541.021 477.328 541.828V548H475.883V539.547H477.25Z" fill="black"/>
  <path d="M377.221 824.121C400.014 824.121 418.49 812.785 418.49 798.801C418.49 784.818 400.014 773.482 377.221 773.482C354.429 773.482 335.952 784.818 335.952 798.801C335.952 812.785 354.429 824.121 377.221 824.121Z" fill="white" stroke="#231F20" stroke-width="2.20189"/>
  <path d="M358.312 803.164C357.75 803.826 356.924 804.156 355.836 804.156C354.935 804.156 354.247 803.896 353.773 803.375C353.305 802.849 353.068 802.073 353.062 801.047V795.547H354.508V801.008C354.508 802.289 355.029 802.93 356.07 802.93C357.174 802.93 357.909 802.518 358.273 801.695V795.547H359.719V804H358.344L358.312 803.164ZM363.492 804H362.047V795.547H363.492V804ZM361.93 793.305C361.93 793.07 362 792.872 362.141 792.711C362.286 792.549 362.5 792.469 362.781 792.469C363.062 792.469 363.276 792.549 363.422 792.711C363.568 792.872 363.641 793.07 363.641 793.305C363.641 793.539 363.568 793.734 363.422 793.891C363.276 794.047 363.062 794.125 362.781 794.125C362.5 794.125 362.286 794.047 362.141 793.891C362 793.734 361.93 793.539 361.93 793.305ZM368.82 799.758H365.008V798.578H368.82V799.758ZM373.625 802.977C374.141 802.977 374.591 802.82 374.977 802.508C375.362 802.195 375.576 801.805 375.617 801.336H376.984C376.958 801.82 376.792 802.281 376.484 802.719C376.177 803.156 375.766 803.505 375.25 803.766C374.74 804.026 374.198 804.156 373.625 804.156C372.474 804.156 371.557 803.773 370.875 803.008C370.198 802.237 369.859 801.185 369.859 799.852V799.609C369.859 798.786 370.01 798.055 370.312 797.414C370.615 796.773 371.047 796.276 371.609 795.922C372.177 795.568 372.846 795.391 373.617 795.391C374.565 795.391 375.352 795.674 375.977 796.242C376.607 796.81 376.943 797.547 376.984 798.453H375.617C375.576 797.906 375.367 797.458 374.992 797.109C374.622 796.755 374.164 796.578 373.617 796.578C372.883 796.578 372.312 796.844 371.906 797.375C371.505 797.901 371.305 798.664 371.305 799.664V799.938C371.305 800.911 371.505 801.661 371.906 802.188C372.307 802.714 372.88 802.977 373.625 802.977ZM378.227 799.695C378.227 798.867 378.388 798.122 378.711 797.461C379.039 796.799 379.492 796.289 380.07 795.93C380.654 795.57 381.318 795.391 382.062 795.391C383.214 795.391 384.143 795.789 384.852 796.586C385.565 797.383 385.922 798.443 385.922 799.766V799.867C385.922 800.69 385.763 801.43 385.445 802.086C385.133 802.737 384.682 803.245 384.094 803.609C383.51 803.974 382.839 804.156 382.078 804.156C380.932 804.156 380.003 803.758 379.289 802.961C378.581 802.164 378.227 801.109 378.227 799.797V799.695ZM379.68 799.867C379.68 800.805 379.896 801.557 380.328 802.125C380.766 802.693 381.349 802.977 382.078 802.977C382.812 802.977 383.396 802.69 383.828 802.117C384.26 801.539 384.477 800.732 384.477 799.695C384.477 798.768 384.255 798.018 383.812 797.445C383.375 796.867 382.792 796.578 382.062 796.578C381.349 796.578 380.773 796.862 380.336 797.43C379.898 797.997 379.68 798.81 379.68 799.867ZM391.82 796.844C391.602 796.807 391.365 796.789 391.109 796.789C390.161 796.789 389.518 797.193 389.18 798V804H387.734V795.547H389.141L389.164 796.523C389.638 795.768 390.31 795.391 391.18 795.391C391.461 795.391 391.674 795.427 391.82 795.5V796.844ZM396.508 804.156C395.362 804.156 394.43 803.781 393.711 803.031C392.992 802.276 392.633 801.268 392.633 800.008V799.742C392.633 798.904 392.792 798.156 393.109 797.5C393.432 796.839 393.88 796.323 394.453 795.953C395.031 795.578 395.656 795.391 396.328 795.391C397.427 795.391 398.281 795.753 398.891 796.477C399.5 797.201 399.805 798.237 399.805 799.586V800.188H394.078C394.099 801.021 394.341 801.695 394.805 802.211C395.273 802.721 395.867 802.977 396.586 802.977C397.096 802.977 397.529 802.872 397.883 802.664C398.237 802.456 398.547 802.18 398.812 801.836L399.695 802.523C398.987 803.612 397.924 804.156 396.508 804.156ZM396.328 796.578C395.745 796.578 395.255 796.792 394.859 797.219C394.464 797.641 394.219 798.234 394.125 799H398.359V798.891C398.318 798.156 398.12 797.589 397.766 797.188C397.411 796.781 396.932 796.578 396.328 796.578Z" fill="black"/>
  <path d="M413.969 5.68951H340.473V56.3282H413.969V5.68951Z" fill="white" stroke="#231F20" stroke-width="2.20189"/>
  <path d="M356.742 31.7031C356.742 30.4062 357.049 29.3646 357.664 28.5781C358.279 27.7865 359.083 27.3906 360.078 27.3906C361.068 27.3906 361.852 27.7292 362.43 28.4062V24H363.875V36H362.547L362.477 35.0938C361.898 35.8021 361.094 36.1562 360.062 36.1562C359.083 36.1562 358.284 35.7552 357.664 34.9531C357.049 34.151 356.742 33.1042 356.742 31.8125V31.7031ZM358.188 31.8672C358.188 32.8255 358.385 33.5755 358.781 34.1172C359.177 34.6589 359.724 34.9297 360.422 34.9297C361.339 34.9297 362.008 34.5182 362.43 33.6953V29.8125C361.997 29.0156 361.333 28.6172 360.438 28.6172C359.729 28.6172 359.177 28.8906 358.781 29.4375C358.385 29.9844 358.188 30.7943 358.188 31.8672ZM369.633 36.1562C368.487 36.1562 367.555 35.7812 366.836 35.0312C366.117 34.276 365.758 33.2682 365.758 32.0078V31.7422C365.758 30.9036 365.917 30.1562 366.234 29.5C366.557 28.8385 367.005 28.3229 367.578 27.9531C368.156 27.5781 368.781 27.3906 369.453 27.3906C370.552 27.3906 371.406 27.7526 372.016 28.4766C372.625 29.2005 372.93 30.237 372.93 31.5859V32.1875H367.203C367.224 33.0208 367.466 33.6953 367.93 34.2109C368.398 34.7214 368.992 34.9766 369.711 34.9766C370.221 34.9766 370.654 34.8724 371.008 34.6641C371.362 34.4557 371.672 34.1797 371.938 33.8359L372.82 34.5234C372.112 35.612 371.049 36.1562 369.633 36.1562ZM369.453 28.5781C368.87 28.5781 368.38 28.7917 367.984 29.2188C367.589 29.6406 367.344 30.2344 367.25 31H371.484V30.8906C371.443 30.1562 371.245 29.5885 370.891 29.1875C370.536 28.7812 370.057 28.5781 369.453 28.5781ZM375.969 27.5469L376.008 28.4844C376.628 27.7552 377.464 27.3906 378.516 27.3906C379.698 27.3906 380.503 27.8438 380.93 28.75C381.211 28.3438 381.576 28.0156 382.023 27.7656C382.477 27.5156 383.01 27.3906 383.625 27.3906C385.479 27.3906 386.422 28.3724 386.453 30.3359V36H385.008V30.4219C385.008 29.8177 384.87 29.3672 384.594 29.0703C384.318 28.7682 383.854 28.6172 383.203 28.6172C382.667 28.6172 382.221 28.7786 381.867 29.1016C381.513 29.4193 381.307 29.849 381.25 30.3906V36H379.797V30.4609C379.797 29.2318 379.195 28.6172 377.992 28.6172C377.044 28.6172 376.396 29.0208 376.047 29.8281V36H374.602V27.5469H375.969ZM388.258 31.6953C388.258 30.8672 388.419 30.1224 388.742 29.4609C389.07 28.7995 389.523 28.2891 390.102 27.9297C390.685 27.5703 391.349 27.3906 392.094 27.3906C393.245 27.3906 394.174 27.7891 394.883 28.5859C395.596 29.3828 395.953 30.4427 395.953 31.7656V31.8672C395.953 32.6901 395.794 33.4297 395.477 34.0859C395.164 34.737 394.714 35.2448 394.125 35.6094C393.542 35.974 392.87 36.1562 392.109 36.1562C390.964 36.1562 390.034 35.7578 389.32 34.9609C388.612 34.1641 388.258 33.1094 388.258 31.7969V31.6953ZM389.711 31.8672C389.711 32.8047 389.927 33.5573 390.359 34.125C390.797 34.6927 391.38 34.9766 392.109 34.9766C392.844 34.9766 393.427 34.6901 393.859 34.1172C394.292 33.5391 394.508 32.7318 394.508 31.6953C394.508 30.7682 394.286 30.0182 393.844 29.4453C393.406 28.8672 392.823 28.5781 392.094 28.5781C391.38 28.5781 390.805 28.862 390.367 29.4297C389.93 29.9974 389.711 30.8099 389.711 31.8672Z" fill="black"/>
</svg>
